# MagicaVoxel @ Ephtracy

# material
mtllib coin.mtl
usemtl palette

# normals
vn -1 0 0
vn 1 0 0
vn 0 0 1
vn 0 0 -1
vn 0 -1 0
vn 0 1 0

# texcoords
vt 0.0214844 0.5
vt 0.0683594 0.5

# verts
v -4 3 2
v -4 3 -1
v -4 7 2
v -4 7 -1
v -3 1 2
v -3 1 -1
v -3 3 2
v -3 3 -1
v -3 7 2
v -3 7 -1
v -3 9 2
v -3 9 -1
v -2 0 2
v -2 0 -1
v -2 1 2
v -2 1 -1
v -2 9 2
v -2 9 -1
v -2 10 2
v -2 10 -1
v -1 3 3
v -1 3 2
v -1 3 -1
v -1 3 -2
v -1 7 3
v -1 7 2
v -1 7 -1
v -1 7 -2
v 1 3 3
v 1 3 2
v 1 3 -1
v 1 3 -2
v 1 7 3
v 1 7 2
v 1 7 -1
v 1 7 -2
v 2 0 2
v 2 0 -1
v 2 1 2
v 2 1 -1
v 2 9 2
v 2 9 -1
v 2 10 2
v 2 10 -1
v 3 1 2
v 3 1 -1
v 3 3 2
v 3 3 -1
v 3 7 2
v 3 7 -1
v 3 9 2
v 3 9 -1
v 4 3 2
v 4 3 -1
v 4 7 2
v 4 7 -1
v -1 3 3
v -1 7 3
v 1 3 3
v 1 7 3
v -4 3 2
v -4 7 2
v -3 1 2
v -3 3 2
v -3 7 2
v -3 9 2
v -2 0 2
v -2 1 2
v -2 2 2
v -2 3 2
v -2 7 2
v -2 8 2
v -2 9 2
v -2 10 2
v -1 1 2
v -1 2 2
v -1 3 2
v -1 7 2
v -1 8 2
v -1 9 2
v 1 1 2
v 1 2 2
v 1 3 2
v 1 7 2
v 1 8 2
v 1 9 2
v 2 0 2
v 2 1 2
v 2 2 2
v 2 3 2
v 2 7 2
v 2 8 2
v 2 9 2
v 2 10 2
v 3 1 2
v 3 3 2
v 3 7 2
v 3 9 2
v 4 3 2
v 4 7 2
v -4 3 -1
v -4 7 -1
v -3 1 -1
v -3 3 -1
v -3 7 -1
v -3 9 -1
v -2 0 -1
v -2 1 -1
v -2 2 -1
v -2 3 -1
v -2 7 -1
v -2 8 -1
v -2 9 -1
v -2 10 -1
v -1 1 -1
v -1 2 -1
v -1 3 -1
v -1 7 -1
v -1 8 -1
v -1 9 -1
v 1 1 -1
v 1 2 -1
v 1 3 -1
v 1 7 -1
v 1 8 -1
v 1 9 -1
v 2 0 -1
v 2 1 -1
v 2 2 -1
v 2 3 -1
v 2 7 -1
v 2 8 -1
v 2 9 -1
v 2 10 -1
v 3 1 -1
v 3 3 -1
v 3 7 -1
v 3 9 -1
v 4 3 -1
v 4 7 -1
v -1 3 -2
v -1 7 -2
v 1 3 -2
v 1 7 -2
v -2 0 2
v 2 0 2
v -2 0 -1
v 2 0 -1
v -3 1 2
v -2 1 2
v 2 1 2
v 3 1 2
v -3 1 -1
v -2 1 -1
v 2 1 -1
v 3 1 -1
v -1 3 3
v 1 3 3
v -4 3 2
v -3 3 2
v -1 3 2
v 1 3 2
v 3 3 2
v 4 3 2
v -4 3 -1
v -3 3 -1
v -1 3 -1
v 1 3 -1
v 3 3 -1
v 4 3 -1
v -1 3 -2
v 1 3 -2
v -1 7 3
v 1 7 3
v -4 7 2
v -3 7 2
v -1 7 2
v 1 7 2
v 3 7 2
v 4 7 2
v -4 7 -1
v -3 7 -1
v -1 7 -1
v 1 7 -1
v 3 7 -1
v 4 7 -1
v -1 7 -2
v 1 7 -2
v -3 9 2
v -2 9 2
v 2 9 2
v 3 9 2
v -3 9 -1
v -2 9 -1
v 2 9 -1
v 3 9 -1
v -2 10 2
v 2 10 2
v -2 10 -1
v 2 10 -1

# faces
f 3/2/1 2/2/1 1/2/1
f 4/2/1 2/2/1 3/2/1
f 7/2/1 6/2/1 5/2/1
f 8/2/1 6/2/1 7/2/1
f 11/2/1 10/2/1 9/2/1
f 12/2/1 10/2/1 11/2/1
f 15/2/1 14/2/1 13/2/1
f 16/2/1 14/2/1 15/2/1
f 19/2/1 18/2/1 17/2/1
f 20/2/1 18/2/1 19/2/1
f 25/1/1 22/1/1 21/1/1
f 26/1/1 22/1/1 25/1/1
f 27/1/1 24/1/1 23/1/1
f 28/1/1 24/1/1 27/1/1
f 29/1/2 30/1/2 33/1/2
f 33/1/2 30/1/2 34/1/2
f 31/1/2 32/1/2 35/1/2
f 35/1/2 32/1/2 36/1/2
f 37/2/2 38/2/2 39/2/2
f 39/2/2 38/2/2 40/2/2
f 41/2/2 42/2/2 43/2/2
f 43/2/2 42/2/2 44/2/2
f 45/2/2 46/2/2 47/2/2
f 47/2/2 46/2/2 48/2/2
f 49/2/2 50/2/2 51/2/2
f 51/2/2 50/2/2 52/2/2
f 53/2/2 54/2/2 55/2/2
f 55/2/2 54/2/2 56/2/2
f 59/1/3 58/1/3 57/1/3
f 60/1/3 58/1/3 59/1/3
f 64/2/3 62/2/3 61/2/3
f 65/2/3 62/2/3 64/2/3
f 68/2/3 64/2/3 63/2/3
f 69/2/3 64/2/3 68/2/3
f 70/1/3 65/1/3 64/1/3
f 70/2/3 64/2/3 69/2/3
f 71/2/3 66/2/3 65/2/3
f 71/1/3 65/1/3 70/1/3
f 72/2/3 66/2/3 71/2/3
f 73/2/3 66/2/3 72/2/3
f 75/2/3 69/2/3 68/2/3
f 75/2/3 68/2/3 67/2/3
f 76/1/3 70/1/3 69/1/3
f 76/2/3 69/2/3 75/2/3
f 76/1/3 71/1/3 70/1/3
f 76/1/3 72/1/3 71/1/3
f 77/1/3 72/1/3 76/1/3
f 78/1/3 72/1/3 77/1/3
f 79/2/3 74/2/3 73/2/3
f 79/1/3 72/1/3 78/1/3
f 79/2/3 73/2/3 72/2/3
f 80/2/3 74/2/3 79/2/3
f 81/2/3 75/2/3 67/2/3
f 81/1/3 77/1/3 76/1/3
f 81/1/3 76/1/3 75/1/3
f 82/1/3 77/1/3 81/1/3
f 83/1/3 77/1/3 82/1/3
f 84/1/3 80/1/3 79/1/3
f 84/1/3 79/1/3 78/1/3
f 85/1/3 80/1/3 84/1/3
f 86/2/3 74/2/3 80/2/3
f 86/1/3 80/1/3 85/1/3
f 87/2/3 82/2/3 81/2/3
f 87/2/3 81/2/3 67/2/3
f 88/2/3 82/2/3 87/2/3
f 89/1/3 85/1/3 84/1/3
f 89/2/3 82/2/3 88/2/3
f 89/1/3 83/1/3 82/1/3
f 89/1/3 84/1/3 83/1/3
f 90/1/3 85/1/3 89/1/3
f 91/1/3 85/1/3 90/1/3
f 92/2/3 86/2/3 85/2/3
f 92/1/3 85/1/3 91/1/3
f 93/2/3 74/2/3 86/2/3
f 93/2/3 86/2/3 92/2/3
f 94/2/3 74/2/3 93/2/3
f 95/2/3 89/2/3 88/2/3
f 95/2/3 90/2/3 89/2/3
f 96/1/3 91/1/3 90/1/3
f 96/2/3 90/2/3 95/2/3
f 97/2/3 92/2/3 91/2/3
f 97/1/3 91/1/3 96/1/3
f 97/2/3 93/2/3 92/2/3
f 98/2/3 93/2/3 97/2/3
f 99/2/3 97/2/3 96/2/3
f 100/2/3 97/2/3 99/2/3
f 101/2/4 102/2/4 104/2/4
f 104/2/4 102/2/4 105/2/4
f 103/2/4 104/2/4 108/2/4
f 108/2/4 104/2/4 109/2/4
f 104/1/4 105/1/4 110/1/4
f 109/2/4 104/2/4 110/2/4
f 105/2/4 106/2/4 111/2/4
f 110/1/4 105/1/4 111/1/4
f 111/2/4 106/2/4 112/2/4
f 112/2/4 106/2/4 113/2/4
f 108/2/4 109/2/4 115/2/4
f 107/2/4 108/2/4 115/2/4
f 109/1/4 110/1/4 116/1/4
f 115/2/4 109/2/4 116/2/4
f 110/1/4 111/1/4 116/1/4
f 111/1/4 112/1/4 116/1/4
f 116/1/4 112/1/4 117/1/4
f 117/1/4 112/1/4 118/1/4
f 113/2/4 114/2/4 119/2/4
f 118/1/4 112/1/4 119/1/4
f 112/2/4 113/2/4 119/2/4
f 119/2/4 114/2/4 120/2/4
f 107/2/4 115/2/4 121/2/4
f 116/1/4 117/1/4 121/1/4
f 115/1/4 116/1/4 121/1/4
f 121/1/4 117/1/4 122/1/4
f 122/1/4 117/1/4 123/1/4
f 119/1/4 120/1/4 124/1/4
f 118/1/4 119/1/4 124/1/4
f 124/1/4 120/1/4 125/1/4
f 120/2/4 114/2/4 126/2/4
f 125/1/4 120/1/4 126/1/4
f 121/2/4 122/2/4 127/2/4
f 107/2/4 121/2/4 127/2/4
f 127/2/4 122/2/4 128/2/4
f 124/1/4 125/1/4 129/1/4
f 128/2/4 122/2/4 129/2/4
f 122/1/4 123/1/4 129/1/4
f 123/1/4 124/1/4 129/1/4
f 129/1/4 125/1/4 130/1/4
f 130/1/4 125/1/4 131/1/4
f 125/2/4 126/2/4 132/2/4
f 131/1/4 125/1/4 132/1/4
f 126/2/4 114/2/4 133/2/4
f 132/2/4 126/2/4 133/2/4
f 133/2/4 114/2/4 134/2/4
f 128/2/4 129/2/4 135/2/4
f 129/2/4 130/2/4 135/2/4
f 130/1/4 131/1/4 136/1/4
f 135/2/4 130/2/4 136/2/4
f 131/2/4 132/2/4 137/2/4
f 136/1/4 131/1/4 137/1/4
f 132/2/4 133/2/4 137/2/4
f 137/2/4 133/2/4 138/2/4
f 136/2/4 137/2/4 139/2/4
f 139/2/4 137/2/4 140/2/4
f 141/1/4 142/1/4 143/1/4
f 143/1/4 142/1/4 144/1/4
f 147/2/5 146/2/5 145/2/5
f 148/2/5 146/2/5 147/2/5
f 153/2/5 150/2/5 149/2/5
f 154/2/5 150/2/5 153/2/5
f 155/2/5 152/2/5 151/2/5
f 156/2/5 152/2/5 155/2/5
f 161/1/5 158/1/5 157/1/5
f 162/1/5 158/1/5 161/1/5
f 165/2/5 160/2/5 159/2/5
f 166/2/5 160/2/5 165/2/5
f 169/2/5 164/2/5 163/2/5
f 170/2/5 164/2/5 169/2/5
f 171/1/5 168/1/5 167/1/5
f 172/1/5 168/1/5 171/1/5
f 173/1/6 174/1/6 177/1/6
f 177/1/6 174/1/6 178/1/6
f 175/2/6 176/2/6 181/2/6
f 181/2/6 176/2/6 182/2/6
f 179/2/6 180/2/6 185/2/6
f 185/2/6 180/2/6 186/2/6
f 183/1/6 184/1/6 187/1/6
f 187/1/6 184/1/6 188/1/6
f 189/2/6 190/2/6 193/2/6
f 193/2/6 190/2/6 194/2/6
f 191/2/6 192/2/6 195/2/6
f 195/2/6 192/2/6 196/2/6
f 197/2/6 198/2/6 199/2/6
f 199/2/6 198/2/6 200/2/6
