# MagicaVoxel @ Ephtracy

# group
o 

# material
mtllib ghost1.mtl
usemtl palette

# normals
vn -1 0 0
vn 1 0 0
vn 0 0 1
vn 0 0 -1
vn 0 -1 0
vn 0 1 0

# texcoords
vt 0.841797 0.5
vt 0.958984 0.5
vt 0.986328 0.5
vt 0.994141 0.5

# verts
v -0.5 0.5 0.2
v -0.5 0.5 -0.1
v -0.5 1.4 0.2
v -0.5 1.4 -0.1
v -0.4 0.6 0.3
v -0.4 0.6 0.2
v -0.4 0.6 -0.1
v -0.4 0.6 -0.2
v -0.4 1.4 0.2
v -0.4 1.4 -0.1
v -0.4 1.4 -0.2
v -0.4 1.5 0.3
v -0.4 1.5 -0.1
v -0.3 0.5 0.4
v -0.3 0.5 -0.3
v -0.3 0.6 0.3
v -0.3 0.6 -0.2
v -0.3 1.1 0.5
v -0.3 1.1 0.4
v -0.3 1.2 0.5
v -0.3 1.2 0.4
v -0.3 1.3 0.5
v -0.3 1.3 0.4
v -0.3 1.4 0.5
v -0.3 1.4 0.4
v -0.3 1.4 0.3
v -0.3 1.4 -0.1
v -0.3 1.4 -0.2
v -0.3 1.4 -0.3
v -0.3 1.5 0.2
v -0.3 1.5 -0.1
v -0.3 1.5 -0.2
v -0.3 1.6 0.2
v -0.3 1.6 -0.1
v -0.2 0.6 0.5
v -0.2 0.6 0.4
v -0.2 0.6 -0.3
v -0.2 0.6 -0.4
v -0.2 1.1 0.5
v -0.2 1.1 0.4
v -0.2 1.2 0.5
v -0.2 1.2 0.4
v -0.2 1.3 0.5
v -0.2 1.3 0.4
v -0.2 1.4 0.4
v -0.2 1.4 0.3
v -0.2 1.4 -0.2
v -0.2 1.4 -0.3
v -0.2 1.4 -0.4
v -0.2 1.5 0.4
v -0.2 1.5 0.3
v -0.2 1.5 0.2
v -0.2 1.5 -0.1
v -0.2 1.5 -0.2
v -0.2 1.5 -0.3
v -0.2 1.6 0.3
v -0.2 1.6 0.2
v -0.2 1.6 -0.1
v -0.2 1.6 -0.2
v -0.2 1.7 0.2
v -0.2 1.7 -0.1
v -0.1 0.5 0.5
v -0.1 0.5 -0.4
v -0.1 0.6 0.5
v -0.1 0.6 -0.4
v 0.1 0.5 0.4
v 0.1 0.5 -0.3
v 0.1 0.6 0.4
v 0.1 0.6 -0.3
v 0.3 0.5 0.2
v 0.3 0.5 -0.1
v 0.3 0.6 0.2
v 0.3 0.6 -0.1
v -0.4 0.5 0.2
v -0.4 0.5 -0.1
v -0.4 0.6 0.2
v -0.4 0.6 -0.1
v -0.2 0.5 0.4
v -0.2 0.5 -0.3
v -0.2 0.6 0.4
v -0.2 0.6 -0.3
v 0 0.5 0.5
v 0 0.5 -0.4
v 0 0.6 0.5
v 0 0.6 -0.4
v 0.1 0.6 0.5
v 0.1 0.6 0.4
v 0.1 0.6 -0.3
v 0.1 0.6 -0.4
v 0.1 1.1 0.5
v 0.1 1.1 0.4
v 0.1 1.2 0.5
v 0.1 1.2 0.4
v 0.1 1.3 0.5
v 0.1 1.3 0.4
v 0.1 1.4 0.4
v 0.1 1.4 0.3
v 0.1 1.4 -0.2
v 0.1 1.4 -0.3
v 0.1 1.4 -0.4
v 0.1 1.5 0.4
v 0.1 1.5 0.3
v 0.1 1.5 0.2
v 0.1 1.5 -0.1
v 0.1 1.5 -0.2
v 0.1 1.5 -0.3
v 0.1 1.6 0.3
v 0.1 1.6 0.2
v 0.1 1.6 -0.1
v 0.1 1.6 -0.2
v 0.1 1.7 0.2
v 0.1 1.7 -0.1
v 0.2 0.5 0.4
v 0.2 0.5 -0.3
v 0.2 0.6 0.3
v 0.2 0.6 -0.2
v 0.2 1.1 0.5
v 0.2 1.1 0.4
v 0.2 1.2 0.5
v 0.2 1.2 0.4
v 0.2 1.3 0.5
v 0.2 1.3 0.4
v 0.2 1.4 0.5
v 0.2 1.4 0.4
v 0.2 1.4 0.3
v 0.2 1.4 0.2
v 0.2 1.4 -0.1
v 0.2 1.4 -0.2
v 0.2 1.4 -0.3
v 0.2 1.5 0.3
v 0.2 1.5 0.2
v 0.2 1.5 -0.1
v 0.2 1.5 -0.2
v 0.2 1.6 0.2
v 0.2 1.6 -0.1
v 0.3 0.6 0.3
v 0.3 0.6 0.2
v 0.3 0.6 -0.1
v 0.3 0.6 -0.2
v 0.3 1.4 0.3
v 0.3 1.4 0.2
v 0.3 1.4 -0.1
v 0.3 1.4 -0.2
v 0.3 1.5 0.2
v 0.3 1.5 -0.1
v 0.4 0.5 0.2
v 0.4 0.5 -0.1
v 0.4 1.4 0.2
v 0.4 1.4 -0.1
v -0.3 1.1 0.5
v -0.3 1.2 0.5
v -0.3 1.3 0.5
v -0.3 1.4 0.5
v -0.2 0.6 0.5
v -0.2 1.1 0.5
v -0.2 1.2 0.5
v -0.2 1.3 0.5
v -0.2 1.4 0.5
v -0.1 0.5 0.5
v -0.1 0.6 0.5
v -0.1 1.1 0.5
v -0.1 1.2 0.5
v -0.1 1.3 0.5
v 0 0.5 0.5
v 0 0.6 0.5
v 0 1.1 0.5
v 0 1.2 0.5
v 0 1.3 0.5
v 0.1 0.6 0.5
v 0.1 1.1 0.5
v 0.1 1.2 0.5
v 0.1 1.3 0.5
v 0.1 1.4 0.5
v 0.2 1.1 0.5
v 0.2 1.2 0.5
v 0.2 1.3 0.5
v 0.2 1.4 0.5
v -0.3 0.5 0.4
v -0.3 1.1 0.4
v -0.3 1.2 0.4
v -0.3 1.3 0.4
v -0.2 0.5 0.4
v -0.2 0.6 0.4
v -0.2 1.1 0.4
v -0.2 1.2 0.4
v -0.2 1.3 0.4
v -0.2 1.4 0.4
v -0.2 1.5 0.4
v 0.1 0.5 0.4
v 0.1 0.6 0.4
v 0.1 1.1 0.4
v 0.1 1.2 0.4
v 0.1 1.3 0.4
v 0.1 1.4 0.4
v 0.1 1.5 0.4
v 0.2 0.5 0.4
v 0.2 1.1 0.4
v 0.2 1.2 0.4
v 0.2 1.3 0.4
v -0.4 0.6 0.3
v -0.4 1.5 0.3
v -0.3 0.6 0.3
v -0.3 1.4 0.3
v -0.2 1.4 0.3
v -0.2 1.5 0.3
v -0.2 1.6 0.3
v 0.1 1.4 0.3
v 0.1 1.5 0.3
v 0.1 1.6 0.3
v 0.2 0.6 0.3
v 0.2 1.4 0.3
v 0.2 1.5 0.3
v 0.3 0.6 0.3
v 0.3 1.4 0.3
v -0.5 0.5 0.2
v -0.5 1.4 0.2
v -0.4 0.5 0.2
v -0.4 0.6 0.2
v -0.4 1.4 0.2
v -0.3 1.5 0.2
v -0.3 1.6 0.2
v -0.2 1.5 0.2
v -0.2 1.6 0.2
v -0.2 1.7 0.2
v 0.1 1.5 0.2
v 0.1 1.6 0.2
v 0.1 1.7 0.2
v 0.2 1.4 0.2
v 0.2 1.5 0.2
v 0.2 1.6 0.2
v 0.3 0.5 0.2
v 0.3 0.6 0.2
v 0.3 1.4 0.2
v 0.3 1.5 0.2
v 0.4 0.5 0.2
v 0.4 1.4 0.2
v -0.5 0.5 -0.1
v -0.5 1.4 -0.1
v -0.4 0.5 -0.1
v -0.4 0.6 -0.1
v -0.4 1.4 -0.1
v -0.4 1.5 -0.1
v -0.3 1.4 -0.1
v -0.3 1.5 -0.1
v -0.3 1.6 -0.1
v -0.2 1.5 -0.1
v -0.2 1.6 -0.1
v -0.2 1.7 -0.1
v 0.1 1.5 -0.1
v 0.1 1.6 -0.1
v 0.1 1.7 -0.1
v 0.2 1.4 -0.1
v 0.2 1.5 -0.1
v 0.2 1.6 -0.1
v 0.3 0.5 -0.1
v 0.3 0.6 -0.1
v 0.3 1.4 -0.1
v 0.3 1.5 -0.1
v 0.4 0.5 -0.1
v 0.4 1.4 -0.1
v -0.4 0.6 -0.2
v -0.4 1.4 -0.2
v -0.3 0.6 -0.2
v -0.3 1.4 -0.2
v -0.3 1.5 -0.2
v -0.2 1.4 -0.2
v -0.2 1.5 -0.2
v -0.2 1.6 -0.2
v 0.1 1.4 -0.2
v 0.1 1.5 -0.2
v 0.1 1.6 -0.2
v 0.2 0.6 -0.2
v 0.2 1.4 -0.2
v 0.2 1.5 -0.2
v 0.3 0.6 -0.2
v 0.3 1.4 -0.2
v -0.3 0.5 -0.3
v -0.3 1.4 -0.3
v -0.2 0.5 -0.3
v -0.2 0.6 -0.3
v -0.2 1.4 -0.3
v -0.2 1.5 -0.3
v 0.1 0.5 -0.3
v 0.1 0.6 -0.3
v 0.1 1.4 -0.3
v 0.1 1.5 -0.3
v 0.2 0.5 -0.3
v 0.2 1.4 -0.3
v -0.2 0.6 -0.4
v -0.2 1.4 -0.4
v -0.1 0.5 -0.4
v -0.1 0.6 -0.4
v 0 0.5 -0.4
v 0 0.6 -0.4
v 0.1 0.6 -0.4
v 0.1 1.4 -0.4
v -0.1 0.5 0.5
v 0 0.5 0.5
v -0.3 0.5 0.4
v -0.2 0.5 0.4
v 0.1 0.5 0.4
v 0.2 0.5 0.4
v -0.5 0.5 0.2
v -0.4 0.5 0.2
v 0.3 0.5 0.2
v 0.4 0.5 0.2
v -0.5 0.5 -0.1
v -0.4 0.5 -0.1
v 0.3 0.5 -0.1
v 0.4 0.5 -0.1
v -0.3 0.5 -0.3
v -0.2 0.5 -0.3
v 0.1 0.5 -0.3
v 0.2 0.5 -0.3
v -0.1 0.5 -0.4
v 0 0.5 -0.4
v -0.2 0.6 0.5
v -0.1 0.6 0.5
v 0 0.6 0.5
v 0.1 0.6 0.5
v -0.2 0.6 0.4
v 0.1 0.6 0.4
v -0.4 0.6 0.3
v -0.3 0.6 0.3
v 0.2 0.6 0.3
v 0.3 0.6 0.3
v -0.4 0.6 0.2
v 0.3 0.6 0.2
v -0.4 0.6 -0.1
v 0.3 0.6 -0.1
v -0.4 0.6 -0.2
v -0.3 0.6 -0.2
v 0.2 0.6 -0.2
v 0.3 0.6 -0.2
v -0.2 0.6 -0.3
v 0.1 0.6 -0.3
v -0.2 0.6 -0.4
v -0.1 0.6 -0.4
v 0 0.6 -0.4
v 0.1 0.6 -0.4
v -0.3 1.1 0.5
v -0.2 1.1 0.5
v 0.1 1.1 0.5
v 0.2 1.1 0.5
v -0.3 1.1 0.4
v -0.2 1.1 0.4
v 0.1 1.1 0.4
v 0.2 1.1 0.4
v -0.3 1.3 0.5
v -0.2 1.3 0.5
v 0.1 1.3 0.5
v 0.2 1.3 0.5
v -0.3 1.3 0.4
v -0.2 1.3 0.4
v 0.1 1.3 0.4
v 0.2 1.3 0.4
v -0.3 1.2 0.5
v -0.2 1.2 0.5
v 0.1 1.2 0.5
v 0.2 1.2 0.5
v -0.3 1.2 0.4
v -0.2 1.2 0.4
v 0.1 1.2 0.4
v 0.2 1.2 0.4
v -0.3 1.4 0.5
v -0.2 1.4 0.5
v 0.1 1.4 0.5
v 0.2 1.4 0.5
v -0.3 1.4 0.4
v -0.2 1.4 0.4
v 0.1 1.4 0.4
v 0.2 1.4 0.4
v -0.3 1.4 0.3
v -0.2 1.4 0.3
v 0.1 1.4 0.3
v 0.2 1.4 0.3
v 0.3 1.4 0.3
v -0.5 1.4 0.2
v -0.4 1.4 0.2
v 0.2 1.4 0.2
v 0.3 1.4 0.2
v 0.4 1.4 0.2
v -0.5 1.4 -0.1
v -0.4 1.4 -0.1
v -0.3 1.4 -0.1
v 0.2 1.4 -0.1
v 0.3 1.4 -0.1
v 0.4 1.4 -0.1
v -0.4 1.4 -0.2
v -0.3 1.4 -0.2
v -0.2 1.4 -0.2
v 0.1 1.4 -0.2
v 0.2 1.4 -0.2
v 0.3 1.4 -0.2
v -0.3 1.4 -0.3
v -0.2 1.4 -0.3
v 0.1 1.4 -0.3
v 0.2 1.4 -0.3
v -0.2 1.4 -0.4
v 0.1 1.4 -0.4
v -0.2 1.5 0.4
v 0.1 1.5 0.4
v -0.4 1.5 0.3
v -0.2 1.5 0.3
v 0.1 1.5 0.3
v 0.2 1.5 0.3
v -0.3 1.5 0.2
v -0.2 1.5 0.2
v 0.1 1.5 0.2
v 0.2 1.5 0.2
v 0.3 1.5 0.2
v -0.4 1.5 -0.1
v -0.3 1.5 -0.1
v -0.2 1.5 -0.1
v 0.1 1.5 -0.1
v 0.2 1.5 -0.1
v 0.3 1.5 -0.1
v -0.3 1.5 -0.2
v -0.2 1.5 -0.2
v 0.1 1.5 -0.2
v 0.2 1.5 -0.2
v -0.2 1.5 -0.3
v 0.1 1.5 -0.3
v -0.2 1.6 0.3
v 0.1 1.6 0.3
v -0.3 1.6 0.2
v -0.2 1.6 0.2
v 0.1 1.6 0.2
v 0.2 1.6 0.2
v -0.3 1.6 -0.1
v -0.2 1.6 -0.1
v 0.1 1.6 -0.1
v 0.2 1.6 -0.1
v -0.2 1.6 -0.2
v 0.1 1.6 -0.2
v -0.2 1.7 0.2
v 0.1 1.7 0.2
v -0.2 1.7 -0.1
v 0.1 1.7 -0.1

# faces
f 3/3/1 2/3/1 1/3/1
f 4/3/1 2/3/1 3/3/1
f 9/3/1 6/3/1 5/3/1
f 10/3/1 8/3/1 7/3/1
f 11/3/1 8/3/1 10/3/1
f 12/3/1 9/3/1 5/3/1
f 12/3/1 10/3/1 9/3/1
f 13/3/1 10/3/1 12/3/1
f 16/3/1 15/3/1 14/3/1
f 17/3/1 15/3/1 16/3/1
f 19/3/1 16/3/1 14/3/1
f 20/2/1 19/2/1 18/2/1
f 21/3/1 16/3/1 19/3/1
f 21/2/1 19/2/1 20/2/1
f 23/3/1 16/3/1 21/3/1
f 24/4/1 23/4/1 22/4/1
f 25/3/1 16/3/1 23/3/1
f 25/4/1 23/4/1 24/4/1
f 26/3/1 16/3/1 25/3/1
f 28/3/1 15/3/1 17/3/1
f 29/3/1 15/3/1 28/3/1
f 31/3/1 28/3/1 27/3/1
f 32/3/1 28/3/1 31/3/1
f 33/3/1 31/3/1 30/3/1
f 34/3/1 31/3/1 33/3/1
f 39/3/1 36/3/1 35/3/1
f 40/3/1 36/3/1 39/3/1
f 43/4/1 42/4/1 41/4/1
f 44/4/1 42/4/1 43/4/1
f 48/3/1 38/3/1 37/3/1
f 49/3/1 38/3/1 48/3/1
f 50/3/1 46/3/1 45/3/1
f 51/3/1 46/3/1 50/3/1
f 54/3/1 48/3/1 47/3/1
f 55/3/1 48/3/1 54/3/1
f 56/3/1 52/3/1 51/3/1
f 57/3/1 52/3/1 56/3/1
f 58/3/1 54/3/1 53/3/1
f 59/3/1 54/3/1 58/3/1
f 60/3/1 58/3/1 57/3/1
f 61/3/1 58/3/1 60/3/1
f 64/3/1 63/3/1 62/3/1
f 65/3/1 63/3/1 64/3/1
f 68/3/1 67/3/1 66/3/1
f 69/3/1 67/3/1 68/3/1
f 72/3/1 71/3/1 70/3/1
f 73/3/1 71/3/1 72/3/1
f 74/3/2 75/3/2 76/3/2
f 76/3/2 75/3/2 77/3/2
f 78/3/2 79/3/2 80/3/2
f 80/3/2 79/3/2 81/3/2
f 82/3/2 83/3/2 84/3/2
f 84/3/2 83/3/2 85/3/2
f 86/3/2 87/3/2 90/3/2
f 90/3/2 87/3/2 91/3/2
f 92/4/2 93/4/2 94/4/2
f 94/4/2 93/4/2 95/4/2
f 88/3/2 89/3/2 99/3/2
f 99/3/2 89/3/2 100/3/2
f 96/3/2 97/3/2 101/3/2
f 101/3/2 97/3/2 102/3/2
f 98/3/2 99/3/2 105/3/2
f 105/3/2 99/3/2 106/3/2
f 102/3/2 103/3/2 107/3/2
f 107/3/2 103/3/2 108/3/2
f 104/3/2 105/3/2 109/3/2
f 109/3/2 105/3/2 110/3/2
f 108/3/2 109/3/2 111/3/2
f 111/3/2 109/3/2 112/3/2
f 113/3/2 114/3/2 115/3/2
f 115/3/2 114/3/2 116/3/2
f 113/3/2 115/3/2 118/3/2
f 117/2/2 118/2/2 119/2/2
f 118/3/2 115/3/2 120/3/2
f 119/2/2 118/2/2 120/2/2
f 120/3/2 115/3/2 122/3/2
f 121/4/2 122/4/2 123/4/2
f 122/3/2 115/3/2 124/3/2
f 123/4/2 122/4/2 124/4/2
f 124/3/2 115/3/2 125/3/2
f 116/3/2 114/3/2 128/3/2
f 128/3/2 114/3/2 129/3/2
f 125/3/2 126/3/2 130/3/2
f 130/3/2 126/3/2 131/3/2
f 127/3/2 128/3/2 132/3/2
f 132/3/2 128/3/2 133/3/2
f 131/3/2 132/3/2 134/3/2
f 134/3/2 132/3/2 135/3/2
f 136/3/2 137/3/2 140/3/2
f 140/3/2 137/3/2 141/3/2
f 138/3/2 139/3/2 142/3/2
f 142/3/2 139/3/2 143/3/2
f 141/3/2 142/3/2 144/3/2
f 144/3/2 142/3/2 145/3/2
f 146/3/2 147/3/2 148/3/2
f 148/3/2 147/3/2 149/3/2
f 155/2/3 151/2/3 150/2/3
f 156/2/3 151/2/3 155/2/3
f 157/4/3 153/4/3 152/4/3
f 158/4/3 153/4/3 157/4/3
f 160/3/3 155/3/3 154/3/3
f 161/1/3 156/1/3 155/1/3
f 161/3/3 155/3/3 160/3/3
f 162/4/3 157/4/3 156/4/3
f 162/1/3 156/1/3 161/1/3
f 163/3/3 158/3/3 157/3/3
f 163/4/3 157/4/3 162/4/3
f 164/3/3 160/3/3 159/3/3
f 164/3/3 161/3/3 160/3/3
f 164/3/3 163/3/3 162/3/3
f 164/3/3 162/3/3 161/3/3
f 165/3/3 163/3/3 164/3/3
f 166/3/3 163/3/3 165/3/3
f 167/3/3 163/3/3 166/3/3
f 168/3/3 158/3/3 163/3/3
f 168/3/3 163/3/3 167/3/3
f 169/3/3 166/3/3 165/3/3
f 170/1/3 167/1/3 166/1/3
f 170/3/3 166/3/3 169/3/3
f 171/4/3 168/4/3 167/4/3
f 171/1/3 167/1/3 170/1/3
f 172/3/3 158/3/3 168/3/3
f 172/4/3 168/4/3 171/4/3
f 173/3/3 158/3/3 172/3/3
f 174/2/3 171/2/3 170/2/3
f 175/2/3 171/2/3 174/2/3
f 176/4/3 173/4/3 172/4/3
f 177/4/3 173/4/3 176/4/3
f 182/3/3 179/3/3 178/3/3
f 183/3/3 179/3/3 182/3/3
f 184/3/3 179/3/3 183/3/3
f 185/3/3 181/3/3 180/3/3
f 186/3/3 181/3/3 185/3/3
f 194/3/3 188/3/3 187/3/3
f 195/3/3 188/3/3 194/3/3
f 196/3/3 190/3/3 189/3/3
f 196/3/3 191/3/3 190/3/3
f 197/3/3 191/3/3 196/3/3
f 198/3/3 193/3/3 192/3/3
f 199/3/3 193/3/3 198/3/3
f 202/3/3 201/3/3 200/3/3
f 203/3/3 201/3/3 202/3/3
f 204/3/3 201/3/3 203/3/3
f 205/3/3 201/3/3 204/3/3
f 208/3/3 206/3/3 205/3/3
f 209/3/3 206/3/3 208/3/3
f 211/3/3 208/3/3 207/3/3
f 212/3/3 208/3/3 211/3/3
f 213/3/3 211/3/3 210/3/3
f 214/3/3 211/3/3 213/3/3
f 217/3/3 216/3/3 215/3/3
f 218/3/3 216/3/3 217/3/3
f 219/3/3 216/3/3 218/3/3
f 222/3/3 221/3/3 220/3/3
f 223/3/3 221/3/3 222/3/3
f 226/3/3 224/3/3 223/3/3
f 227/3/3 224/3/3 226/3/3
f 229/3/3 226/3/3 225/3/3
f 230/3/3 226/3/3 229/3/3
f 233/3/3 229/3/3 228/3/3
f 234/3/3 229/3/3 233/3/3
f 235/3/3 232/3/3 231/3/3
f 235/3/3 233/3/3 232/3/3
f 236/3/3 233/3/3 235/3/3
f 237/3/4 238/3/4 239/3/4
f 239/3/4 238/3/4 240/3/4
f 240/3/4 238/3/4 241/3/4
f 241/3/4 242/3/4 243/3/4
f 243/3/4 242/3/4 244/3/4
f 244/3/4 245/3/4 246/3/4
f 246/3/4 245/3/4 247/3/4
f 247/3/4 248/3/4 250/3/4
f 250/3/4 248/3/4 251/3/4
f 249/3/4 250/3/4 253/3/4
f 253/3/4 250/3/4 254/3/4
f 252/3/4 253/3/4 257/3/4
f 257/3/4 253/3/4 258/3/4
f 255/3/4 256/3/4 259/3/4
f 256/3/4 257/3/4 259/3/4
f 259/3/4 257/3/4 260/3/4
f 261/3/4 262/3/4 263/3/4
f 263/3/4 262/3/4 264/3/4
f 264/3/4 265/3/4 266/3/4
f 266/3/4 265/3/4 267/3/4
f 267/3/4 268/3/4 270/3/4
f 270/3/4 268/3/4 271/3/4
f 269/3/4 270/3/4 273/3/4
f 273/3/4 270/3/4 274/3/4
f 272/3/4 273/3/4 275/3/4
f 275/3/4 273/3/4 276/3/4
f 277/3/4 278/3/4 279/3/4
f 279/3/4 278/3/4 280/3/4
f 280/3/4 278/3/4 281/3/4
f 281/3/4 282/3/4 285/3/4
f 285/3/4 282/3/4 286/3/4
f 283/3/4 284/3/4 287/3/4
f 284/3/4 285/3/4 287/3/4
f 287/3/4 285/3/4 288/3/4
f 289/3/4 290/3/4 292/3/4
f 291/3/4 292/3/4 293/3/4
f 292/3/4 290/3/4 294/3/4
f 293/3/4 292/3/4 294/3/4
f 294/3/4 290/3/4 295/3/4
f 295/3/4 290/3/4 296/3/4
f 307/3/5 304/3/5 303/3/5
f 308/3/5 304/3/5 307/3/5
f 309/3/5 306/3/5 305/3/5
f 310/3/5 306/3/5 309/3/5
f 311/3/5 300/3/5 299/3/5
f 312/3/5 300/3/5 311/3/5
f 313/3/5 302/3/5 301/3/5
f 314/3/5 302/3/5 313/3/5
f 315/3/5 298/3/5 297/3/5
f 316/3/5 298/3/5 315/3/5
f 321/3/5 318/3/5 317/3/5
f 322/3/5 320/3/5 319/3/5
f 327/3/5 324/3/5 323/3/5
f 328/3/5 326/3/5 325/3/5
f 329/3/5 324/3/5 327/3/5
f 330/3/5 328/3/5 325/3/5
f 331/3/5 324/3/5 329/3/5
f 332/3/5 324/3/5 331/3/5
f 333/3/5 330/3/5 325/3/5
f 334/3/5 330/3/5 333/3/5
f 335/3/5 318/3/5 321/3/5
f 336/3/5 322/3/5 319/3/5
f 337/3/5 318/3/5 335/3/5
f 338/3/5 318/3/5 337/3/5
f 339/3/5 336/3/5 319/3/5
f 340/3/5 336/3/5 339/3/5
f 345/2/5 342/2/5 341/2/5
f 346/2/5 342/2/5 345/2/5
f 347/2/5 344/2/5 343/2/5
f 348/2/5 344/2/5 347/2/5
f 353/4/5 350/4/5 349/4/5
f 354/4/5 350/4/5 353/4/5
f 355/4/5 352/4/5 351/4/5
f 356/4/5 352/4/5 355/4/5
f 357/2/6 358/2/6 361/2/6
f 361/2/6 358/2/6 362/2/6
f 359/2/6 360/2/6 363/2/6
f 363/2/6 360/2/6 364/2/6
f 365/4/6 366/4/6 369/4/6
f 366/3/6 367/3/6 370/3/6
f 369/4/6 366/4/6 370/4/6
f 367/4/6 368/4/6 371/4/6
f 370/3/6 367/3/6 371/3/6
f 371/4/6 368/4/6 372/4/6
f 369/3/6 370/3/6 373/3/6
f 373/3/6 370/3/6 374/3/6
f 371/3/6 372/3/6 375/3/6
f 375/3/6 372/3/6 376/3/6
f 376/3/6 377/3/6 380/3/6
f 380/3/6 377/3/6 381/3/6
f 378/3/6 379/3/6 383/3/6
f 383/3/6 379/3/6 384/3/6
f 381/3/6 382/3/6 387/3/6
f 387/3/6 382/3/6 388/3/6
f 384/3/6 385/3/6 389/3/6
f 389/3/6 385/3/6 390/3/6
f 386/3/6 387/3/6 393/3/6
f 393/3/6 387/3/6 394/3/6
f 390/3/6 391/3/6 395/3/6
f 395/3/6 391/3/6 396/3/6
f 392/3/6 393/3/6 397/3/6
f 397/3/6 393/3/6 398/3/6
f 396/3/6 397/3/6 399/3/6
f 399/3/6 397/3/6 400/3/6
f 401/3/6 402/3/6 404/3/6
f 404/3/6 402/3/6 405/3/6
f 403/3/6 404/3/6 407/3/6
f 407/3/6 404/3/6 408/3/6
f 405/3/6 406/3/6 409/3/6
f 409/3/6 406/3/6 410/3/6
f 403/3/6 407/3/6 412/3/6
f 412/3/6 407/3/6 413/3/6
f 410/3/6 411/3/6 416/3/6
f 416/3/6 411/3/6 417/3/6
f 413/3/6 414/3/6 418/3/6
f 418/3/6 414/3/6 419/3/6
f 415/3/6 416/3/6 420/3/6
f 420/3/6 416/3/6 421/3/6
f 419/3/6 420/3/6 422/3/6
f 422/3/6 420/3/6 423/3/6
f 424/3/6 425/3/6 427/3/6
f 427/3/6 425/3/6 428/3/6
f 426/3/6 427/3/6 430/3/6
f 430/3/6 427/3/6 431/3/6
f 428/3/6 429/3/6 432/3/6
f 432/3/6 429/3/6 433/3/6
f 431/3/6 432/3/6 434/3/6
f 434/3/6 432/3/6 435/3/6
f 436/3/6 437/3/6 438/3/6
f 438/3/6 437/3/6 439/3/6
