# MagicaVoxel @ Ephtracy

# group
o 

# material
mtllib ghost3.mtl
usemtl palette

# normals
vn -1 0 0
vn 1 0 0
vn 0 0 1
vn 0 0 -1
vn 0 -1 0
vn 0 1 0

# texcoords
vt 0.0449219 0.5
vt 0.775391 0.5
vt 0.958984 0.5
vt 0.994141 0.5

# verts
v -0.5 0.5 0.2
v -0.5 0.5 -0.1
v -0.5 1.4 0.2
v -0.5 1.4 -0.1
v -0.4 0.6 0.3
v -0.4 0.6 0.2
v -0.4 0.6 -0.1
v -0.4 0.6 -0.2
v -0.4 1.4 0.2
v -0.4 1.4 -0.1
v -0.4 1.4 -0.2
v -0.4 1.5 0.3
v -0.4 1.5 -0.1
v -0.3 0.5 0.4
v -0.3 0.5 -0.3
v -0.3 0.6 0.3
v -0.3 0.6 -0.2
v -0.3 1 0.5
v -0.3 1 0.4
v -0.3 1.2 0.5
v -0.3 1.2 0.4
v -0.3 1.3 0.5
v -0.3 1.3 0.4
v -0.3 1.4 0.5
v -0.3 1.4 0.4
v -0.3 1.4 0.3
v -0.3 1.4 -0.1
v -0.3 1.4 -0.2
v -0.3 1.4 -0.3
v -0.3 1.5 0.2
v -0.3 1.5 -0.1
v -0.3 1.5 -0.2
v -0.3 1.6 0.2
v -0.3 1.6 -0.1
v -0.2 0.6 0.5
v -0.2 0.6 0.4
v -0.2 0.6 -0.3
v -0.2 0.6 -0.4
v -0.2 1 0.5
v -0.2 1 0.4
v -0.2 1.4 0.4
v -0.2 1.4 0.3
v -0.2 1.4 -0.2
v -0.2 1.4 -0.3
v -0.2 1.4 -0.4
v -0.2 1.5 0.4
v -0.2 1.5 0.3
v -0.2 1.5 0.2
v -0.2 1.5 -0.1
v -0.2 1.5 -0.2
v -0.2 1.5 -0.3
v -0.2 1.6 0.3
v -0.2 1.6 0.2
v -0.2 1.6 -0.1
v -0.2 1.6 -0.2
v -0.2 1.7 0.2
v -0.2 1.7 -0.1
v -0.1 0.5 0.5
v -0.1 0.5 -0.4
v -0.1 0.6 0.5
v -0.1 0.6 -0.4
v 0.1 0.5 0.4
v 0.1 0.5 -0.3
v 0.1 0.6 0.4
v 0.1 0.6 -0.3
v 0.3 0.5 0.2
v 0.3 0.5 -0.1
v 0.3 0.6 0.2
v 0.3 0.6 -0.1
v -0.4 0.5 0.2
v -0.4 0.5 -0.1
v -0.4 0.6 0.2
v -0.4 0.6 -0.1
v -0.2 0.5 0.4
v -0.2 0.5 -0.3
v -0.2 0.6 0.4
v -0.2 0.6 -0.3
v 0 0.5 0.5
v 0 0.5 -0.4
v 0 0.6 0.5
v 0 0.6 -0.4
v 0.1 0.6 0.5
v 0.1 0.6 0.4
v 0.1 0.6 -0.3
v 0.1 0.6 -0.4
v 0.1 1 0.5
v 0.1 1 0.4
v 0.1 1.4 0.4
v 0.1 1.4 0.3
v 0.1 1.4 -0.2
v 0.1 1.4 -0.3
v 0.1 1.4 -0.4
v 0.1 1.5 0.4
v 0.1 1.5 0.3
v 0.1 1.5 0.2
v 0.1 1.5 -0.1
v 0.1 1.5 -0.2
v 0.1 1.5 -0.3
v 0.1 1.6 0.3
v 0.1 1.6 0.2
v 0.1 1.6 -0.1
v 0.1 1.6 -0.2
v 0.1 1.7 0.2
v 0.1 1.7 -0.1
v 0.2 0.5 0.4
v 0.2 0.5 -0.3
v 0.2 0.6 0.3
v 0.2 0.6 -0.2
v 0.2 1 0.5
v 0.2 1 0.4
v 0.2 1.2 0.5
v 0.2 1.2 0.4
v 0.2 1.3 0.5
v 0.2 1.3 0.4
v 0.2 1.4 0.5
v 0.2 1.4 0.4
v 0.2 1.4 0.3
v 0.2 1.4 0.2
v 0.2 1.4 -0.1
v 0.2 1.4 -0.2
v 0.2 1.4 -0.3
v 0.2 1.5 0.3
v 0.2 1.5 0.2
v 0.2 1.5 -0.1
v 0.2 1.5 -0.2
v 0.2 1.6 0.2
v 0.2 1.6 -0.1
v 0.3 0.6 0.3
v 0.3 0.6 0.2
v 0.3 0.6 -0.1
v 0.3 0.6 -0.2
v 0.3 1.4 0.3
v 0.3 1.4 0.2
v 0.3 1.4 -0.1
v 0.3 1.4 -0.2
v 0.3 1.5 0.2
v 0.3 1.5 -0.1
v 0.4 0.5 0.2
v 0.4 0.5 -0.1
v 0.4 1.4 0.2
v 0.4 1.4 -0.1
v -0.3 1 0.5
v -0.3 1.2 0.5
v -0.3 1.3 0.5
v -0.3 1.4 0.5
v -0.2 0.6 0.5
v -0.2 1 0.5
v -0.2 1.1 0.5
v -0.1 0.5 0.5
v -0.1 0.6 0.5
v -0.1 1 0.5
v -0.1 1.1 0.5
v -0.1 1.2 0.5
v -0.1 1.3 0.5
v -0.1 1.4 0.5
v 0 0.5 0.5
v 0 0.6 0.5
v 0 1 0.5
v 0 1.1 0.5
v 0 1.2 0.5
v 0 1.3 0.5
v 0 1.4 0.5
v 0.1 0.6 0.5
v 0.1 1 0.5
v 0.1 1.1 0.5
v 0.2 1 0.5
v 0.2 1.2 0.5
v 0.2 1.3 0.5
v 0.2 1.4 0.5
v -0.3 0.5 0.4
v -0.3 1 0.4
v -0.2 0.5 0.4
v -0.2 0.6 0.4
v -0.2 1 0.4
v -0.2 1.4 0.4
v -0.2 1.5 0.4
v -0.1 1.4 0.4
v 0 1.4 0.4
v 0.1 0.5 0.4
v 0.1 0.6 0.4
v 0.1 1 0.4
v 0.1 1.4 0.4
v 0.1 1.5 0.4
v 0.2 0.5 0.4
v 0.2 1 0.4
v -0.4 0.6 0.3
v -0.4 1.5 0.3
v -0.3 0.6 0.3
v -0.3 1.4 0.3
v -0.2 1.4 0.3
v -0.2 1.5 0.3
v -0.2 1.6 0.3
v 0.1 1.4 0.3
v 0.1 1.5 0.3
v 0.1 1.6 0.3
v 0.2 0.6 0.3
v 0.2 1.4 0.3
v 0.2 1.5 0.3
v 0.3 0.6 0.3
v 0.3 1.4 0.3
v -0.5 0.5 0.2
v -0.5 1.4 0.2
v -0.4 0.5 0.2
v -0.4 0.6 0.2
v -0.4 1.4 0.2
v -0.3 1.5 0.2
v -0.3 1.6 0.2
v -0.2 1.5 0.2
v -0.2 1.6 0.2
v -0.2 1.7 0.2
v 0.1 1.5 0.2
v 0.1 1.6 0.2
v 0.1 1.7 0.2
v 0.2 1.4 0.2
v 0.2 1.5 0.2
v 0.2 1.6 0.2
v 0.3 0.5 0.2
v 0.3 0.6 0.2
v 0.3 1.4 0.2
v 0.3 1.5 0.2
v 0.4 0.5 0.2
v 0.4 1.4 0.2
v -0.5 0.5 -0.1
v -0.5 1.4 -0.1
v -0.4 0.5 -0.1
v -0.4 0.6 -0.1
v -0.4 1.4 -0.1
v -0.4 1.5 -0.1
v -0.3 1.4 -0.1
v -0.3 1.5 -0.1
v -0.3 1.6 -0.1
v -0.2 1.5 -0.1
v -0.2 1.6 -0.1
v -0.2 1.7 -0.1
v 0.1 1.5 -0.1
v 0.1 1.6 -0.1
v 0.1 1.7 -0.1
v 0.2 1.4 -0.1
v 0.2 1.5 -0.1
v 0.2 1.6 -0.1
v 0.3 0.5 -0.1
v 0.3 0.6 -0.1
v 0.3 1.4 -0.1
v 0.3 1.5 -0.1
v 0.4 0.5 -0.1
v 0.4 1.4 -0.1
v -0.4 0.6 -0.2
v -0.4 1.4 -0.2
v -0.3 0.6 -0.2
v -0.3 1.4 -0.2
v -0.3 1.5 -0.2
v -0.2 1.4 -0.2
v -0.2 1.5 -0.2
v -0.2 1.6 -0.2
v 0.1 1.4 -0.2
v 0.1 1.5 -0.2
v 0.1 1.6 -0.2
v 0.2 0.6 -0.2
v 0.2 1.4 -0.2
v 0.2 1.5 -0.2
v 0.3 0.6 -0.2
v 0.3 1.4 -0.2
v -0.3 0.5 -0.3
v -0.3 1.4 -0.3
v -0.2 0.5 -0.3
v -0.2 0.6 -0.3
v -0.2 1.4 -0.3
v -0.2 1.5 -0.3
v 0.1 0.5 -0.3
v 0.1 0.6 -0.3
v 0.1 1.4 -0.3
v 0.1 1.5 -0.3
v 0.2 0.5 -0.3
v 0.2 1.4 -0.3
v -0.2 0.6 -0.4
v -0.2 1.4 -0.4
v -0.1 0.5 -0.4
v -0.1 0.6 -0.4
v 0 0.5 -0.4
v 0 0.6 -0.4
v 0.1 0.6 -0.4
v 0.1 1.4 -0.4
v -0.1 0.5 0.5
v 0 0.5 0.5
v -0.3 0.5 0.4
v -0.2 0.5 0.4
v 0.1 0.5 0.4
v 0.2 0.5 0.4
v -0.5 0.5 0.2
v -0.4 0.5 0.2
v 0.3 0.5 0.2
v 0.4 0.5 0.2
v -0.5 0.5 -0.1
v -0.4 0.5 -0.1
v 0.3 0.5 -0.1
v 0.4 0.5 -0.1
v -0.3 0.5 -0.3
v -0.2 0.5 -0.3
v 0.1 0.5 -0.3
v 0.2 0.5 -0.3
v -0.1 0.5 -0.4
v 0 0.5 -0.4
v -0.2 0.6 0.5
v -0.1 0.6 0.5
v 0 0.6 0.5
v 0.1 0.6 0.5
v -0.2 0.6 0.4
v 0.1 0.6 0.4
v -0.4 0.6 0.3
v -0.3 0.6 0.3
v 0.2 0.6 0.3
v 0.3 0.6 0.3
v -0.4 0.6 0.2
v 0.3 0.6 0.2
v -0.4 0.6 -0.1
v 0.3 0.6 -0.1
v -0.4 0.6 -0.2
v -0.3 0.6 -0.2
v 0.2 0.6 -0.2
v 0.3 0.6 -0.2
v -0.2 0.6 -0.3
v 0.1 0.6 -0.3
v -0.2 0.6 -0.4
v -0.1 0.6 -0.4
v 0 0.6 -0.4
v 0.1 0.6 -0.4
v -0.3 1 0.5
v -0.2 1 0.5
v 0.1 1 0.5
v 0.2 1 0.5
v -0.3 1 0.4
v -0.2 1 0.4
v 0.1 1 0.4
v 0.2 1 0.4
v -0.3 1.4 0.5
v -0.1 1.4 0.5
v 0 1.4 0.5
v 0.2 1.4 0.5
v -0.3 1.4 0.4
v -0.2 1.4 0.4
v -0.1 1.4 0.4
v 0 1.4 0.4
v 0.1 1.4 0.4
v 0.2 1.4 0.4
v -0.3 1.4 0.3
v -0.2 1.4 0.3
v 0.1 1.4 0.3
v 0.2 1.4 0.3
v 0.3 1.4 0.3
v -0.5 1.4 0.2
v -0.4 1.4 0.2
v 0.2 1.4 0.2
v 0.3 1.4 0.2
v 0.4 1.4 0.2
v -0.5 1.4 -0.1
v -0.4 1.4 -0.1
v -0.3 1.4 -0.1
v 0.2 1.4 -0.1
v 0.3 1.4 -0.1
v 0.4 1.4 -0.1
v -0.4 1.4 -0.2
v -0.3 1.4 -0.2
v -0.2 1.4 -0.2
v 0.1 1.4 -0.2
v 0.2 1.4 -0.2
v 0.3 1.4 -0.2
v -0.3 1.4 -0.3
v -0.2 1.4 -0.3
v 0.1 1.4 -0.3
v 0.2 1.4 -0.3
v -0.2 1.4 -0.4
v 0.1 1.4 -0.4
v -0.2 1.5 0.4
v 0.1 1.5 0.4
v -0.4 1.5 0.3
v -0.2 1.5 0.3
v 0.1 1.5 0.3
v 0.2 1.5 0.3
v -0.3 1.5 0.2
v -0.2 1.5 0.2
v 0.1 1.5 0.2
v 0.2 1.5 0.2
v 0.3 1.5 0.2
v -0.4 1.5 -0.1
v -0.3 1.5 -0.1
v -0.2 1.5 -0.1
v 0.1 1.5 -0.1
v 0.2 1.5 -0.1
v 0.3 1.5 -0.1
v -0.3 1.5 -0.2
v -0.2 1.5 -0.2
v 0.1 1.5 -0.2
v 0.2 1.5 -0.2
v -0.2 1.5 -0.3
v 0.1 1.5 -0.3
v -0.2 1.6 0.3
v 0.1 1.6 0.3
v -0.3 1.6 0.2
v -0.2 1.6 0.2
v 0.1 1.6 0.2
v 0.2 1.6 0.2
v -0.3 1.6 -0.1
v -0.2 1.6 -0.1
v 0.1 1.6 -0.1
v 0.2 1.6 -0.1
v -0.2 1.6 -0.2
v 0.1 1.6 -0.2
v -0.2 1.7 0.2
v 0.1 1.7 0.2
v -0.2 1.7 -0.1
v 0.1 1.7 -0.1

# faces
f 3/1/1 2/1/1 1/1/1
f 4/1/1 2/1/1 3/1/1
f 9/1/1 6/1/1 5/1/1
f 10/1/1 8/1/1 7/1/1
f 11/1/1 8/1/1 10/1/1
f 12/1/1 9/1/1 5/1/1
f 12/1/1 10/1/1 9/1/1
f 13/1/1 10/1/1 12/1/1
f 16/1/1 15/1/1 14/1/1
f 17/1/1 15/1/1 16/1/1
f 19/1/1 16/1/1 14/1/1
f 20/3/1 19/3/1 18/3/1
f 21/1/1 16/1/1 19/1/1
f 21/3/1 19/3/1 20/3/1
f 22/1/1 21/1/1 20/1/1
f 23/1/1 16/1/1 21/1/1
f 23/1/1 21/1/1 22/1/1
f 24/4/1 23/4/1 22/4/1
f 25/1/1 16/1/1 23/1/1
f 25/4/1 23/4/1 24/4/1
f 26/1/1 16/1/1 25/1/1
f 28/1/1 15/1/1 17/1/1
f 29/1/1 15/1/1 28/1/1
f 31/1/1 28/1/1 27/1/1
f 32/1/1 28/1/1 31/1/1
f 33/1/1 31/1/1 30/1/1
f 34/1/1 31/1/1 33/1/1
f 39/1/1 36/1/1 35/1/1
f 40/1/1 36/1/1 39/1/1
f 44/1/1 38/1/1 37/1/1
f 45/1/1 38/1/1 44/1/1
f 46/1/1 42/1/1 41/1/1
f 47/1/1 42/1/1 46/1/1
f 50/1/1 44/1/1 43/1/1
f 51/1/1 44/1/1 50/1/1
f 52/1/1 48/1/1 47/1/1
f 53/1/1 48/1/1 52/1/1
f 54/1/1 50/1/1 49/1/1
f 55/1/1 50/1/1 54/1/1
f 56/1/1 54/1/1 53/1/1
f 57/1/1 54/1/1 56/1/1
f 60/1/1 59/1/1 58/1/1
f 61/1/1 59/1/1 60/1/1
f 64/1/1 63/1/1 62/1/1
f 65/1/1 63/1/1 64/1/1
f 68/1/1 67/1/1 66/1/1
f 69/1/1 67/1/1 68/1/1
f 70/1/2 71/1/2 72/1/2
f 72/1/2 71/1/2 73/1/2
f 74/1/2 75/1/2 76/1/2
f 76/1/2 75/1/2 77/1/2
f 78/1/2 79/1/2 80/1/2
f 80/1/2 79/1/2 81/1/2
f 82/1/2 83/1/2 86/1/2
f 86/1/2 83/1/2 87/1/2
f 84/1/2 85/1/2 91/1/2
f 91/1/2 85/1/2 92/1/2
f 88/1/2 89/1/2 93/1/2
f 93/1/2 89/1/2 94/1/2
f 90/1/2 91/1/2 97/1/2
f 97/1/2 91/1/2 98/1/2
f 94/1/2 95/1/2 99/1/2
f 99/1/2 95/1/2 100/1/2
f 96/1/2 97/1/2 101/1/2
f 101/1/2 97/1/2 102/1/2
f 100/1/2 101/1/2 103/1/2
f 103/1/2 101/1/2 104/1/2
f 105/1/2 106/1/2 107/1/2
f 107/1/2 106/1/2 108/1/2
f 105/1/2 107/1/2 110/1/2
f 109/3/2 110/3/2 111/3/2
f 110/1/2 107/1/2 112/1/2
f 111/3/2 110/3/2 112/3/2
f 111/1/2 112/1/2 113/1/2
f 112/1/2 107/1/2 114/1/2
f 113/1/2 112/1/2 114/1/2
f 113/4/2 114/4/2 115/4/2
f 114/1/2 107/1/2 116/1/2
f 115/4/2 114/4/2 116/4/2
f 116/1/2 107/1/2 117/1/2
f 108/1/2 106/1/2 120/1/2
f 120/1/2 106/1/2 121/1/2
f 117/1/2 118/1/2 122/1/2
f 122/1/2 118/1/2 123/1/2
f 119/1/2 120/1/2 124/1/2
f 124/1/2 120/1/2 125/1/2
f 123/1/2 124/1/2 126/1/2
f 126/1/2 124/1/2 127/1/2
f 128/1/2 129/1/2 132/1/2
f 132/1/2 129/1/2 133/1/2
f 130/1/2 131/1/2 134/1/2
f 134/1/2 131/1/2 135/1/2
f 133/1/2 134/1/2 136/1/2
f 136/1/2 134/1/2 137/1/2
f 138/1/2 139/1/2 140/1/2
f 140/1/2 139/1/2 141/1/2
f 147/3/3 143/3/3 142/3/3
f 148/3/3 143/3/3 147/3/3
f 150/1/3 147/1/3 146/1/3
f 151/2/3 148/2/3 147/2/3
f 151/1/3 147/1/3 150/1/3
f 152/3/3 143/3/3 148/3/3
f 152/2/3 148/2/3 151/2/3
f 153/1/3 144/1/3 143/1/3
f 153/3/3 143/3/3 152/3/3
f 154/4/3 145/4/3 144/4/3
f 154/1/3 144/1/3 153/1/3
f 155/4/3 145/4/3 154/4/3
f 156/1/3 153/1/3 152/1/3
f 156/1/3 152/1/3 151/1/3
f 156/1/3 155/1/3 154/1/3
f 156/1/3 154/1/3 153/1/3
f 156/1/3 151/1/3 150/1/3
f 156/1/3 150/1/3 149/1/3
f 157/1/3 155/1/3 156/1/3
f 158/1/3 155/1/3 157/1/3
f 159/1/3 155/1/3 158/1/3
f 160/1/3 155/1/3 159/1/3
f 161/1/3 155/1/3 160/1/3
f 162/1/3 155/1/3 161/1/3
f 163/1/3 158/1/3 157/1/3
f 164/2/3 159/2/3 158/2/3
f 164/1/3 158/1/3 163/1/3
f 165/3/3 160/3/3 159/3/3
f 165/2/3 159/2/3 164/2/3
f 166/3/3 165/3/3 164/3/3
f 167/3/3 160/3/3 165/3/3
f 167/3/3 165/3/3 166/3/3
f 167/1/3 161/1/3 160/1/3
f 168/4/3 162/4/3 161/4/3
f 168/1/3 161/1/3 167/1/3
f 169/4/3 162/4/3 168/4/3
f 172/1/3 171/1/3 170/1/3
f 173/1/3 171/1/3 172/1/3
f 174/1/3 171/1/3 173/1/3
f 177/1/3 176/1/3 175/1/3
f 178/1/3 176/1/3 177/1/3
f 182/1/3 176/1/3 178/1/3
f 183/1/3 176/1/3 182/1/3
f 184/1/3 181/1/3 180/1/3
f 184/1/3 180/1/3 179/1/3
f 185/1/3 181/1/3 184/1/3
f 188/1/3 187/1/3 186/1/3
f 189/1/3 187/1/3 188/1/3
f 190/1/3 187/1/3 189/1/3
f 191/1/3 187/1/3 190/1/3
f 194/1/3 192/1/3 191/1/3
f 195/1/3 192/1/3 194/1/3
f 197/1/3 194/1/3 193/1/3
f 198/1/3 194/1/3 197/1/3
f 199/1/3 197/1/3 196/1/3
f 200/1/3 197/1/3 199/1/3
f 203/1/3 202/1/3 201/1/3
f 204/1/3 202/1/3 203/1/3
f 205/1/3 202/1/3 204/1/3
f 208/1/3 207/1/3 206/1/3
f 209/1/3 207/1/3 208/1/3
f 212/1/3 210/1/3 209/1/3
f 213/1/3 210/1/3 212/1/3
f 215/1/3 212/1/3 211/1/3
f 216/1/3 212/1/3 215/1/3
f 219/1/3 215/1/3 214/1/3
f 220/1/3 215/1/3 219/1/3
f 221/1/3 218/1/3 217/1/3
f 221/1/3 219/1/3 218/1/3
f 222/1/3 219/1/3 221/1/3
f 223/1/4 224/1/4 225/1/4
f 225/1/4 224/1/4 226/1/4
f 226/1/4 224/1/4 227/1/4
f 227/1/4 228/1/4 229/1/4
f 229/1/4 228/1/4 230/1/4
f 230/1/4 231/1/4 232/1/4
f 232/1/4 231/1/4 233/1/4
f 233/1/4 234/1/4 236/1/4
f 236/1/4 234/1/4 237/1/4
f 235/1/4 236/1/4 239/1/4
f 239/1/4 236/1/4 240/1/4
f 238/1/4 239/1/4 243/1/4
f 243/1/4 239/1/4 244/1/4
f 241/1/4 242/1/4 245/1/4
f 242/1/4 243/1/4 245/1/4
f 245/1/4 243/1/4 246/1/4
f 247/1/4 248/1/4 249/1/4
f 249/1/4 248/1/4 250/1/4
f 250/1/4 251/1/4 252/1/4
f 252/1/4 251/1/4 253/1/4
f 253/1/4 254/1/4 256/1/4
f 256/1/4 254/1/4 257/1/4
f 255/1/4 256/1/4 259/1/4
f 259/1/4 256/1/4 260/1/4
f 258/1/4 259/1/4 261/1/4
f 261/1/4 259/1/4 262/1/4
f 263/1/4 264/1/4 265/1/4
f 265/1/4 264/1/4 266/1/4
f 266/1/4 264/1/4 267/1/4
f 267/1/4 268/1/4 271/1/4
f 271/1/4 268/1/4 272/1/4
f 269/1/4 270/1/4 273/1/4
f 270/1/4 271/1/4 273/1/4
f 273/1/4 271/1/4 274/1/4
f 275/1/4 276/1/4 278/1/4
f 277/1/4 278/1/4 279/1/4
f 278/1/4 276/1/4 280/1/4
f 279/1/4 278/1/4 280/1/4
f 280/1/4 276/1/4 281/1/4
f 281/1/4 276/1/4 282/1/4
f 293/1/5 290/1/5 289/1/5
f 294/1/5 290/1/5 293/1/5
f 295/1/5 292/1/5 291/1/5
f 296/1/5 292/1/5 295/1/5
f 297/1/5 286/1/5 285/1/5
f 298/1/5 286/1/5 297/1/5
f 299/1/5 288/1/5 287/1/5
f 300/1/5 288/1/5 299/1/5
f 301/1/5 284/1/5 283/1/5
f 302/1/5 284/1/5 301/1/5
f 307/1/5 304/1/5 303/1/5
f 308/1/5 306/1/5 305/1/5
f 313/1/5 310/1/5 309/1/5
f 314/1/5 312/1/5 311/1/5
f 315/1/5 310/1/5 313/1/5
f 316/1/5 314/1/5 311/1/5
f 317/1/5 310/1/5 315/1/5
f 318/1/5 310/1/5 317/1/5
f 319/1/5 316/1/5 311/1/5
f 320/1/5 316/1/5 319/1/5
f 321/1/5 304/1/5 307/1/5
f 322/1/5 308/1/5 305/1/5
f 323/1/5 304/1/5 321/1/5
f 324/1/5 304/1/5 323/1/5
f 325/1/5 322/1/5 305/1/5
f 326/1/5 322/1/5 325/1/5
f 331/3/5 328/3/5 327/3/5
f 332/3/5 328/3/5 331/3/5
f 333/3/5 330/3/5 329/3/5
f 334/3/5 330/3/5 333/3/5
f 335/4/6 336/4/6 339/4/6
f 339/4/6 336/4/6 340/4/6
f 336/1/6 337/1/6 341/1/6
f 340/4/6 336/4/6 341/4/6
f 337/4/6 338/4/6 342/4/6
f 341/1/6 337/1/6 342/1/6
f 342/4/6 338/4/6 343/4/6
f 343/4/6 338/4/6 344/4/6
f 339/1/6 340/1/6 345/1/6
f 345/1/6 340/1/6 346/1/6
f 343/1/6 344/1/6 347/1/6
f 347/1/6 344/1/6 348/1/6
f 348/1/6 349/1/6 352/1/6
f 352/1/6 349/1/6 353/1/6
f 350/1/6 351/1/6 355/1/6
f 355/1/6 351/1/6 356/1/6
f 353/1/6 354/1/6 359/1/6
f 359/1/6 354/1/6 360/1/6
f 356/1/6 357/1/6 361/1/6
f 361/1/6 357/1/6 362/1/6
f 358/1/6 359/1/6 365/1/6
f 365/1/6 359/1/6 366/1/6
f 362/1/6 363/1/6 367/1/6
f 367/1/6 363/1/6 368/1/6
f 364/1/6 365/1/6 369/1/6
f 369/1/6 365/1/6 370/1/6
f 368/1/6 369/1/6 371/1/6
f 371/1/6 369/1/6 372/1/6
f 373/1/6 374/1/6 376/1/6
f 376/1/6 374/1/6 377/1/6
f 375/1/6 376/1/6 379/1/6
f 379/1/6 376/1/6 380/1/6
f 377/1/6 378/1/6 381/1/6
f 381/1/6 378/1/6 382/1/6
f 375/1/6 379/1/6 384/1/6
f 384/1/6 379/1/6 385/1/6
f 382/1/6 383/1/6 388/1/6
f 388/1/6 383/1/6 389/1/6
f 385/1/6 386/1/6 390/1/6
f 390/1/6 386/1/6 391/1/6
f 387/1/6 388/1/6 392/1/6
f 392/1/6 388/1/6 393/1/6
f 391/1/6 392/1/6 394/1/6
f 394/1/6 392/1/6 395/1/6
f 396/1/6 397/1/6 399/1/6
f 399/1/6 397/1/6 400/1/6
f 398/1/6 399/1/6 402/1/6
f 402/1/6 399/1/6 403/1/6
f 400/1/6 401/1/6 404/1/6
f 404/1/6 401/1/6 405/1/6
f 403/1/6 404/1/6 406/1/6
f 406/1/6 404/1/6 407/1/6
f 408/1/6 409/1/6 410/1/6
f 410/1/6 409/1/6 411/1/6
