# MagicaVoxel @ Ephtracy

# material
mtllib alien1.mtl
usemtl palette

# normals
vn -1 0 0
vn 1 0 0
vn 0 0 1
vn 0 0 -1
vn 0 -1 0
vn 0 1 0

# texcoords
vt 0.0214844 0.5
vt 0.775391 0.5
vt 0.841797 0.5
vt 0.966797 0.5
vt 0.974609 0.5

# verts
v -8 5 6
v -8 5 4
v -8 6 6
v -8 6 4
v -7 5 4
v -7 5 -0
v -7 6 4
v -7 6 -0
v -6 5 6
v -6 5 5
v -6 6 6
v -6 6 5
v -5 1 2
v -5 1 -1
v -5 2 2
v -5 2 -1
v -5 5 1
v -5 5 -0
v -5 6 1
v -5 6 -0
v -5 8 2
v -5 8 -1
v -4 0 2
v -4 0 -1
v -4 1 3
v -4 1 2
v -4 1 -1
v -4 1 -2
v -4 2 3
v -4 2 2
v -4 2 -1
v -4 2 -2
v -4 8 2
v -4 8 -1
v -4 8 -2
v -4 9 3
v -4 9 -1
v -3 0 3
v -3 0 2
v -3 0 -1
v -3 0 -2
v -3 1 4
v -3 1 3
v -3 1 2
v -3 1 -1
v -3 1 -2
v -3 1 -3
v -3 2 4
v -3 2 3
v -3 2 -2
v -3 2 -3
v -3 3 4
v -3 3 3
v -3 4 4
v -3 4 3
v -3 5 4
v -3 5 3
v -3 6 5
v -3 6 4
v -3 6 3
v -3 7 5
v -3 7 4
v -3 7 3
v -3 8 4
v -3 8 3
v -3 8 -1
v -3 8 -2
v -3 8 -3
v -3 9 2
v -3 9 -1
v -3 9 -2
v -3 10 2
v -3 10 1
v -3 10 -0
v -3 10 -1
v -3 13 1
v -3 13 -0
v -3 14 1
v -3 14 -0
v -2 0 4
v -2 0 3
v -2 0 -2
v -2 0 -3
v -2 1 5
v -2 1 4
v -2 1 3
v -2 1 -2
v -2 1 -3
v -2 1 -4
v -2 2 5
v -2 2 4
v -2 2 -3
v -2 2 -4
v -2 3 5
v -2 3 4
v -2 4 5
v -2 4 4
v -2 5 5
v -2 5 4
v -2 6 5
v -2 6 4
v -2 7 5
v -2 7 4
v -2 8 5
v -2 8 4
v -2 8 3
v -2 8 -2
v -2 8 -3
v -2 8 -4
v -2 9 4
v -2 9 3
v -2 9 2
v -2 9 -1
v -2 9 -2
v -2 9 -3
v -2 10 3
v -2 10 2
v -2 10 1
v -2 10 -0
v -2 10 -1
v -2 10 -2
v -2 11 2
v -2 11 1
v -2 11 -0
v -2 11 -1
v 1 11 1
v 1 11 -0
v 1 13 1
v 1 13 -0
v 1 14 1
v 1 14 -0
v 4 5 6
v 4 5 4
v 4 6 6
v 4 6 4
v 5 5 4
v 5 5 1
v 5 6 4
v 5 6 1
v 6 5 6
v 6 5 5
v 6 6 6
v 6 6 5
v -7 5 6
v -7 5 5
v -7 6 6
v -7 6 5
v -6 5 4
v -6 5 1
v -6 6 4
v -6 6 1
v -5 5 6
v -5 5 4
v -5 6 6
v -5 6 4
v -2 11 1
v -2 11 -0
v -2 13 1
v -2 13 -0
v -2 14 1
v -2 14 -0
v 1 0 4
v 1 0 3
v 1 0 -2
v 1 0 -3
v 1 1 5
v 1 1 4
v 1 1 3
v 1 1 -2
v 1 1 -3
v 1 1 -4
v 1 2 5
v 1 2 4
v 1 2 -3
v 1 2 -4
v 1 3 5
v 1 3 4
v 1 4 5
v 1 4 4
v 1 5 5
v 1 5 4
v 1 6 5
v 1 6 4
v 1 7 5
v 1 7 4
v 1 8 5
v 1 8 4
v 1 8 3
v 1 8 -2
v 1 8 -3
v 1 8 -4
v 1 9 4
v 1 9 3
v 1 9 2
v 1 9 -1
v 1 9 -2
v 1 9 -3
v 1 10 3
v 1 10 2
v 1 10 1
v 1 10 -0
v 1 10 -1
v 1 10 -2
v 1 11 2
v 1 11 1
v 1 11 -0
v 1 11 -1
v 2 0 3
v 2 0 2
v 2 0 -1
v 2 0 -2
v 2 1 4
v 2 1 3
v 2 1 2
v 2 1 -1
v 2 1 -2
v 2 1 -3
v 2 2 4
v 2 2 3
v 2 2 -2
v 2 2 -3
v 2 3 4
v 2 3 3
v 2 4 4
v 2 4 3
v 2 5 4
v 2 5 3
v 2 6 5
v 2 6 4
v 2 6 3
v 2 7 5
v 2 7 4
v 2 7 3
v 2 8 4
v 2 8 3
v 2 8 2
v 2 8 -1
v 2 8 -2
v 2 8 -3
v 2 9 3
v 2 9 2
v 2 9 -1
v 2 9 -2
v 2 10 2
v 2 10 1
v 2 10 -0
v 2 10 -1
v 2 13 1
v 2 13 -0
v 2 14 1
v 2 14 -0
v 3 0 2
v 3 0 -1
v 3 1 3
v 3 1 2
v 3 1 -1
v 3 1 -2
v 3 2 3
v 3 2 2
v 3 2 -1
v 3 2 -2
v 3 8 3
v 3 8 2
v 3 8 -1
v 3 8 -2
v 3 9 2
v 3 9 -1
v 4 1 2
v 4 1 -1
v 4 2 2
v 4 2 -1
v 4 5 1
v 4 5 -0
v 4 6 1
v 4 6 -0
v 4 8 2
v 4 8 -1
v 5 5 6
v 5 5 5
v 5 6 6
v 5 6 5
v 6 5 4
v 6 5 -0
v 6 6 4
v 6 6 -0
v 7 5 6
v 7 5 4
v 7 6 6
v 7 6 4
v -8 5 6
v -8 6 6
v -7 5 6
v -7 6 6
v -6 5 6
v -6 6 6
v -5 5 6
v -5 6 6
v 4 5 6
v 4 6 6
v 5 5 6
v 5 6 6
v 6 5 6
v 6 6 6
v 7 5 6
v 7 6 6
v -7 5 5
v -7 6 5
v -6 5 5
v -6 6 5
v -3 6 5
v -3 7 5
v -2 1 5
v -2 2 5
v -2 3 5
v -2 4 5
v -2 5 5
v -2 6 5
v -2 7 5
v -2 8 5
v -1 3 5
v -1 4 5
v -1 5 5
v -1 6 5
v -1 7 5
v 0 3 5
v 0 4 5
v 0 5 5
v 0 6 5
v 0 7 5
v 1 1 5
v 1 2 5
v 1 3 5
v 1 4 5
v 1 5 5
v 1 6 5
v 1 7 5
v 1 8 5
v 2 6 5
v 2 7 5
v 5 5 5
v 5 6 5
v 6 5 5
v 6 6 5
v -3 1 4
v -3 2 4
v -3 3 4
v -3 4 4
v -3 5 4
v -3 6 4
v -3 7 4
v -3 8 4
v -2 0 4
v -2 1 4
v -2 2 4
v -2 3 4
v -2 4 4
v -2 5 4
v -2 6 4
v -2 7 4
v -2 8 4
v -2 9 4
v 1 0 4
v 1 1 4
v 1 2 4
v 1 3 4
v 1 4 4
v 1 5 4
v 1 6 4
v 1 7 4
v 1 8 4
v 1 9 4
v 2 1 4
v 2 2 4
v 2 3 4
v 2 4 4
v 2 5 4
v 2 6 4
v 2 7 4
v 2 8 4
v -4 1 3
v -4 2 3
v -4 9 3
v -3 0 3
v -3 1 3
v -3 2 3
v -3 3 3
v -3 4 3
v -3 5 3
v -3 6 3
v -3 7 3
v -3 8 3
v -2 0 3
v -2 1 3
v -2 8 3
v -2 9 3
v -2 10 3
v 1 0 3
v 1 1 3
v 1 8 3
v 1 9 3
v 1 10 3
v 2 0 3
v 2 1 3
v 2 2 3
v 2 3 3
v 2 4 3
v 2 5 3
v 2 6 3
v 2 7 3
v 2 8 3
v 2 9 3
v 3 1 3
v 3 2 3
v 3 8 3
v -5 1 2
v -5 2 2
v -5 8 2
v -4 0 2
v -4 1 2
v -4 2 2
v -4 8 2
v -3 0 2
v -3 1 2
v -3 9 2
v -3 10 2
v -2 9 2
v -2 10 2
v -2 11 2
v 1 9 2
v 1 10 2
v 1 11 2
v 2 0 2
v 2 1 2
v 2 8 2
v 2 9 2
v 2 10 2
v 3 0 2
v 3 1 2
v 3 2 2
v 3 8 2
v 3 9 2
v 4 1 2
v 4 2 2
v 4 8 2
v -6 5 1
v -6 6 1
v -5 5 1
v -5 6 1
v -3 10 1
v -3 13 1
v -3 14 1
v -2 10 1
v -2 11 1
v -2 13 1
v -2 14 1
v 1 10 1
v 1 11 1
v 1 13 1
v 1 14 1
v 2 10 1
v 2 13 1
v 2 14 1
v 4 5 1
v 4 6 1
v 5 5 1
v 5 6 1
v -8 5 4
v -8 6 4
v -7 5 4
v -7 6 4
v -6 5 4
v -6 6 4
v -5 5 4
v -5 6 4
v 4 5 4
v 4 6 4
v 5 5 4
v 5 6 4
v 6 5 4
v 6 6 4
v 7 5 4
v 7 6 4
v -7 5 -0
v -7 6 -0
v -5 5 -0
v -5 6 -0
v -3 10 -0
v -3 13 -0
v -3 14 -0
v -2 10 -0
v -2 11 -0
v -2 13 -0
v -2 14 -0
v 1 10 -0
v 1 11 -0
v 1 13 -0
v 1 14 -0
v 2 10 -0
v 2 13 -0
v 2 14 -0
v 4 5 -0
v 4 6 -0
v 6 5 -0
v 6 6 -0
v -5 1 -1
v -5 2 -1
v -5 8 -1
v -4 0 -1
v -4 1 -1
v -4 2 -1
v -4 8 -1
v -4 9 -1
v -3 0 -1
v -3 1 -1
v -3 8 -1
v -3 9 -1
v -3 10 -1
v -2 9 -1
v -2 10 -1
v -2 11 -1
v 1 9 -1
v 1 10 -1
v 1 11 -1
v 2 0 -1
v 2 1 -1
v 2 8 -1
v 2 9 -1
v 2 10 -1
v 3 0 -1
v 3 1 -1
v 3 2 -1
v 3 8 -1
v 3 9 -1
v 4 1 -1
v 4 2 -1
v 4 8 -1
v -4 1 -2
v -4 2 -2
v -4 8 -2
v -3 0 -2
v -3 1 -2
v -3 2 -2
v -3 8 -2
v -3 9 -2
v -2 0 -2
v -2 1 -2
v -2 8 -2
v -2 9 -2
v -2 10 -2
v 1 0 -2
v 1 1 -2
v 1 8 -2
v 1 9 -2
v 1 10 -2
v 2 0 -2
v 2 1 -2
v 2 2 -2
v 2 8 -2
v 2 9 -2
v 3 1 -2
v 3 2 -2
v 3 8 -2
v -3 1 -3
v -3 2 -3
v -3 8 -3
v -2 0 -3
v -2 1 -3
v -2 2 -3
v -2 8 -3
v -2 9 -3
v 1 0 -3
v 1 1 -3
v 1 2 -3
v 1 8 -3
v 1 9 -3
v 2 1 -3
v 2 2 -3
v 2 8 -3
v -2 1 -4
v -2 2 -4
v -2 8 -4
v 1 1 -4
v 1 2 -4
v 1 8 -4
v -2 0 4
v 1 0 4
v -3 0 3
v -2 0 3
v 1 0 3
v 2 0 3
v -4 0 2
v -3 0 2
v 2 0 2
v 3 0 2
v -4 0 -1
v -3 0 -1
v 2 0 -1
v 3 0 -1
v -3 0 -2
v -2 0 -2
v 1 0 -2
v 2 0 -2
v -2 0 -3
v 1 0 -3
v -2 1 5
v 1 1 5
v -3 1 4
v -2 1 4
v 1 1 4
v 2 1 4
v -4 1 3
v -3 1 3
v -2 1 3
v 1 1 3
v 2 1 3
v 3 1 3
v -5 1 2
v -4 1 2
v -3 1 2
v 2 1 2
v 3 1 2
v 4 1 2
v -5 1 -1
v -4 1 -1
v -3 1 -1
v 2 1 -1
v 3 1 -1
v 4 1 -1
v -4 1 -2
v -3 1 -2
v -2 1 -2
v 1 1 -2
v 2 1 -2
v 3 1 -2
v -3 1 -3
v -2 1 -3
v 1 1 -3
v 2 1 -3
v -2 1 -4
v 1 1 -4
v -8 5 6
v -7 5 6
v -6 5 6
v -5 5 6
v 4 5 6
v 5 5 6
v 6 5 6
v 7 5 6
v -7 5 5
v -6 5 5
v 5 5 5
v 6 5 5
v -8 5 4
v -7 5 4
v -6 5 4
v -5 5 4
v 4 5 4
v 5 5 4
v 6 5 4
v 7 5 4
v -6 5 1
v -5 5 1
v 4 5 1
v 5 5 1
v -7 5 -0
v -5 5 -0
v 4 5 -0
v 6 5 -0
v -3 6 5
v -2 6 5
v 1 6 5
v 2 6 5
v -3 6 4
v -2 6 4
v 1 6 4
v 2 6 4
v -8 6 6
v -7 6 6
v -6 6 6
v -5 6 6
v 4 6 6
v 5 6 6
v 6 6 6
v 7 6 6
v -7 6 5
v -6 6 5
v 5 6 5
v 6 6 5
v -8 6 4
v -7 6 4
v -6 6 4
v -5 6 4
v 4 6 4
v 5 6 4
v 6 6 4
v 7 6 4
v -6 6 1
v -5 6 1
v 4 6 1
v 5 6 1
v -7 6 -0
v -5 6 -0
v 4 6 -0
v 6 6 -0
v -3 7 5
v -2 7 5
v 1 7 5
v 2 7 5
v -3 7 4
v -2 7 4
v 1 7 4
v 2 7 4
v -2 8 5
v 1 8 5
v -3 8 4
v -2 8 4
v 1 8 4
v 2 8 4
v -3 8 3
v -2 8 3
v 1 8 3
v 2 8 3
v 3 8 3
v -5 8 2
v -4 8 2
v 2 8 2
v 3 8 2
v 4 8 2
v -5 8 -1
v -4 8 -1
v -3 8 -1
v 2 8 -1
v 3 8 -1
v 4 8 -1
v -4 8 -2
v -3 8 -2
v -2 8 -2
v 1 8 -2
v 2 8 -2
v 3 8 -2
v -3 8 -3
v -2 8 -3
v 1 8 -3
v 2 8 -3
v -2 8 -4
v 1 8 -4
v -2 9 4
v 1 9 4
v -4 9 3
v -2 9 3
v 1 9 3
v 2 9 3
v -3 9 2
v -2 9 2
v 1 9 2
v 2 9 2
v 3 9 2
v -4 9 -1
v -3 9 -1
v -2 9 -1
v 1 9 -1
v 2 9 -1
v 3 9 -1
v -3 9 -2
v -2 9 -2
v 1 9 -2
v 2 9 -2
v -2 9 -3
v 1 9 -3
v -2 10 3
v 1 10 3
v -3 10 2
v -2 10 2
v 1 10 2
v 2 10 2
v -3 10 1
v -2 10 1
v 1 10 1
v 2 10 1
v -3 10 -0
v -2 10 -0
v 1 10 -0
v 2 10 -0
v -3 10 -1
v -2 10 -1
v 1 10 -1
v 2 10 -1
v -2 10 -2
v 1 10 -2
v -2 11 2
v 1 11 2
v -2 11 1
v 1 11 1
v -2 11 -0
v 1 11 -0
v -2 11 -1
v 1 11 -1
v -3 14 1
v -2 14 1
v 1 14 1
v 2 14 1
v -3 14 -0
v -2 14 -0
v 1 14 -0
v 2 14 -0

# faces
f 3/5/1 2/5/1 1/5/1
f 4/5/1 2/5/1 3/5/1
f 7/4/1 6/4/1 5/4/1
f 8/4/1 6/4/1 7/4/1
f 11/5/1 10/5/1 9/5/1
f 12/5/1 10/5/1 11/5/1
f 15/5/1 14/5/1 13/5/1
f 16/5/1 14/5/1 15/5/1
f 17/4/1 16/4/1 15/4/1
f 18/4/1 16/4/1 17/4/1
f 19/4/1 17/4/1 15/4/1
f 20/4/1 16/4/1 18/4/1
f 21/4/1 19/4/1 15/4/1
f 21/4/1 20/4/1 19/4/1
f 22/4/1 16/4/1 20/4/1
f 22/4/1 20/4/1 21/4/1
f 26/5/1 24/5/1 23/5/1
f 27/5/1 24/5/1 26/5/1
f 29/5/1 26/5/1 25/5/1
f 30/5/1 26/5/1 29/5/1
f 31/5/1 28/5/1 27/5/1
f 32/5/1 28/5/1 31/5/1
f 33/4/1 30/4/1 29/4/1
f 34/4/1 32/4/1 31/4/1
f 35/4/1 32/4/1 34/4/1
f 36/4/1 33/4/1 29/4/1
f 36/4/1 34/4/1 33/4/1
f 37/4/1 34/4/1 36/4/1
f 43/5/1 39/5/1 38/5/1
f 44/5/1 39/5/1 43/5/1
f 45/5/1 41/5/1 40/5/1
f 46/5/1 41/5/1 45/5/1
f 48/5/1 43/5/1 42/5/1
f 49/5/1 43/5/1 48/5/1
f 50/5/1 47/5/1 46/5/1
f 51/5/1 47/5/1 50/5/1
f 52/4/1 49/4/1 48/4/1
f 53/4/1 49/4/1 52/4/1
f 54/3/1 53/3/1 52/3/1
f 55/3/1 53/3/1 54/3/1
f 56/2/1 55/2/1 54/2/1
f 57/2/1 55/2/1 56/2/1
f 59/4/1 57/4/1 56/4/1
f 60/4/1 57/4/1 59/4/1
f 61/3/1 59/3/1 58/3/1
f 61/3/1 60/3/1 59/3/1
f 62/3/1 60/3/1 61/3/1
f 63/3/1 60/3/1 62/3/1
f 64/4/1 63/4/1 62/4/1
f 65/4/1 63/4/1 64/4/1
f 67/4/1 51/4/1 50/4/1
f 68/4/1 51/4/1 67/4/1
f 70/4/1 67/4/1 66/4/1
f 71/4/1 67/4/1 70/4/1
f 72/4/1 70/4/1 69/4/1
f 73/4/1 70/4/1 72/4/1
f 74/4/1 70/4/1 73/4/1
f 75/4/1 70/4/1 74/4/1
f 76/5/1 74/5/1 73/5/1
f 77/5/1 74/5/1 76/5/1
f 78/1/1 77/1/1 76/1/1
f 79/1/1 77/1/1 78/1/1
f 85/5/1 81/5/1 80/5/1
f 86/5/1 81/5/1 85/5/1
f 87/5/1 83/5/1 82/5/1
f 88/5/1 83/5/1 87/5/1
f 90/5/1 85/5/1 84/5/1
f 91/5/1 85/5/1 90/5/1
f 92/5/1 89/5/1 88/5/1
f 93/5/1 89/5/1 92/5/1
f 94/4/1 91/4/1 90/4/1
f 95/4/1 91/4/1 94/4/1
f 96/2/1 95/2/1 94/2/1
f 97/2/1 95/2/1 96/2/1
f 98/3/1 97/3/1 96/3/1
f 99/3/1 97/3/1 98/3/1
f 100/4/1 99/4/1 98/4/1
f 101/4/1 99/4/1 100/4/1
f 104/4/1 103/4/1 102/4/1
f 105/4/1 103/4/1 104/4/1
f 108/4/1 93/4/1 92/4/1
f 109/4/1 93/4/1 108/4/1
f 110/4/1 106/4/1 105/4/1
f 111/4/1 106/4/1 110/4/1
f 114/4/1 108/4/1 107/4/1
f 115/4/1 108/4/1 114/4/1
f 116/4/1 112/4/1 111/4/1
f 117/4/1 112/4/1 116/4/1
f 120/4/1 114/4/1 113/4/1
f 121/4/1 114/4/1 120/4/1
f 122/4/1 118/4/1 117/4/1
f 123/4/1 118/4/1 122/4/1
f 124/4/1 120/4/1 119/4/1
f 125/4/1 120/4/1 124/4/1
f 128/5/1 127/5/1 126/5/1
f 129/5/1 127/5/1 128/5/1
f 130/1/1 129/1/1 128/1/1
f 131/1/1 129/1/1 130/1/1
f 134/5/1 133/5/1 132/5/1
f 135/5/1 133/5/1 134/5/1
f 138/4/1 137/4/1 136/4/1
f 139/4/1 137/4/1 138/4/1
f 142/5/1 141/5/1 140/5/1
f 143/5/1 141/5/1 142/5/1
f 144/5/2 145/5/2 146/5/2
f 146/5/2 145/5/2 147/5/2
f 148/4/2 149/4/2 150/4/2
f 150/4/2 149/4/2 151/4/2
f 152/5/2 153/5/2 154/5/2
f 154/5/2 153/5/2 155/5/2
f 156/5/2 157/5/2 158/5/2
f 158/5/2 157/5/2 159/5/2
f 158/1/2 159/1/2 160/1/2
f 160/1/2 159/1/2 161/1/2
f 162/5/2 163/5/2 167/5/2
f 167/5/2 163/5/2 168/5/2
f 164/5/2 165/5/2 169/5/2
f 169/5/2 165/5/2 170/5/2
f 166/5/2 167/5/2 172/5/2
f 172/5/2 167/5/2 173/5/2
f 170/5/2 171/5/2 174/5/2
f 174/5/2 171/5/2 175/5/2
f 172/4/2 173/4/2 176/4/2
f 176/4/2 173/4/2 177/4/2
f 176/2/2 177/2/2 178/2/2
f 178/2/2 177/2/2 179/2/2
f 178/3/2 179/3/2 180/3/2
f 180/3/2 179/3/2 181/3/2
f 180/4/2 181/4/2 182/4/2
f 182/4/2 181/4/2 183/4/2
f 184/4/2 185/4/2 186/4/2
f 186/4/2 185/4/2 187/4/2
f 174/4/2 175/4/2 190/4/2
f 190/4/2 175/4/2 191/4/2
f 187/4/2 188/4/2 192/4/2
f 192/4/2 188/4/2 193/4/2
f 189/4/2 190/4/2 196/4/2
f 196/4/2 190/4/2 197/4/2
f 193/4/2 194/4/2 198/4/2
f 198/4/2 194/4/2 199/4/2
f 195/4/2 196/4/2 202/4/2
f 202/4/2 196/4/2 203/4/2
f 199/4/2 200/4/2 204/4/2
f 204/4/2 200/4/2 205/4/2
f 201/4/2 202/4/2 206/4/2
f 206/4/2 202/4/2 207/4/2
f 208/5/2 209/5/2 213/5/2
f 213/5/2 209/5/2 214/5/2
f 210/5/2 211/5/2 215/5/2
f 215/5/2 211/5/2 216/5/2
f 212/5/2 213/5/2 218/5/2
f 218/5/2 213/5/2 219/5/2
f 216/5/2 217/5/2 220/5/2
f 220/5/2 217/5/2 221/5/2
f 218/4/2 219/4/2 222/4/2
f 222/4/2 219/4/2 223/4/2
f 222/3/2 223/3/2 224/3/2
f 224/3/2 223/3/2 225/3/2
f 224/2/2 225/2/2 226/2/2
f 226/2/2 225/2/2 227/2/2
f 226/4/2 227/4/2 229/4/2
f 229/4/2 227/4/2 230/4/2
f 228/3/2 229/3/2 231/3/2
f 229/3/2 230/3/2 231/3/2
f 231/3/2 230/3/2 232/3/2
f 232/3/2 230/3/2 233/3/2
f 232/4/2 233/4/2 234/4/2
f 234/4/2 233/4/2 235/4/2
f 220/4/2 221/4/2 238/4/2
f 238/4/2 221/4/2 239/4/2
f 235/4/2 236/4/2 240/4/2
f 240/4/2 236/4/2 241/4/2
f 237/4/2 238/4/2 242/4/2
f 242/4/2 238/4/2 243/4/2
f 241/4/2 242/4/2 244/4/2
f 244/4/2 242/4/2 245/4/2
f 245/4/2 242/4/2 246/4/2
f 246/4/2 242/4/2 247/4/2
f 245/5/2 246/5/2 248/5/2
f 248/5/2 246/5/2 249/5/2
f 248/1/2 249/1/2 250/1/2
f 250/1/2 249/1/2 251/1/2
f 252/5/2 253/5/2 255/5/2
f 255/5/2 253/5/2 256/5/2
f 254/5/2 255/5/2 258/5/2
f 258/5/2 255/5/2 259/5/2
f 256/5/2 257/5/2 260/5/2
f 260/5/2 257/5/2 261/5/2
f 258/4/2 259/4/2 262/4/2
f 262/4/2 259/4/2 263/4/2
f 260/4/2 261/4/2 264/4/2
f 264/4/2 261/4/2 265/4/2
f 263/4/2 264/4/2 266/4/2
f 266/4/2 264/4/2 267/4/2
f 268/5/2 269/5/2 270/5/2
f 270/5/2 269/5/2 271/5/2
f 270/4/2 271/4/2 272/4/2
f 272/4/2 271/4/2 273/4/2
f 270/4/2 272/4/2 274/4/2
f 273/4/2 271/4/2 275/4/2
f 270/4/2 274/4/2 276/4/2
f 274/4/2 275/4/2 276/4/2
f 275/4/2 271/4/2 277/4/2
f 276/4/2 275/4/2 277/4/2
f 278/5/2 279/5/2 280/5/2
f 280/5/2 279/5/2 281/5/2
f 282/4/2 283/4/2 284/4/2
f 284/4/2 283/4/2 285/4/2
f 286/5/2 287/5/2 288/5/2
f 288/5/2 287/5/2 289/5/2
f 292/5/3 291/5/3 290/5/3
f 293/5/3 291/5/3 292/5/3
f 296/5/3 295/5/3 294/5/3
f 297/5/3 295/5/3 296/5/3
f 300/5/3 299/5/3 298/5/3
f 301/5/3 299/5/3 300/5/3
f 304/5/3 303/5/3 302/5/3
f 305/5/3 303/5/3 304/5/3
f 308/5/3 307/5/3 306/5/3
f 309/5/3 307/5/3 308/5/3
f 317/3/3 311/3/3 310/3/3
f 318/3/3 311/3/3 317/3/3
f 320/4/3 314/4/3 313/4/3
f 320/2/3 315/2/3 314/2/3
f 321/3/3 316/3/3 315/3/3
f 321/2/3 315/2/3 320/2/3
f 322/4/3 317/4/3 316/4/3
f 322/3/3 316/3/3 321/3/3
f 323/3/3 318/3/3 317/3/3
f 323/4/3 317/4/3 322/4/3
f 324/4/3 319/4/3 318/4/3
f 324/3/3 318/3/3 323/3/3
f 325/4/3 320/4/3 313/4/3
f 325/3/3 321/3/3 320/3/3
f 326/2/3 322/2/3 321/2/3
f 326/3/3 321/3/3 325/3/3
f 327/4/3 323/4/3 322/4/3
f 327/2/3 322/2/3 326/2/3
f 327/4/3 324/4/3 323/4/3
f 328/4/3 324/4/3 327/4/3
f 329/4/3 319/4/3 324/4/3
f 329/4/3 324/4/3 328/4/3
f 330/5/3 313/5/3 312/5/3
f 331/4/3 325/4/3 313/4/3
f 331/5/3 313/5/3 330/5/3
f 332/2/3 326/2/3 325/2/3
f 332/4/3 325/4/3 331/4/3
f 333/3/3 327/3/3 326/3/3
f 333/2/3 326/2/3 332/2/3
f 334/4/3 328/4/3 327/4/3
f 334/3/3 327/3/3 333/3/3
f 335/3/3 329/3/3 328/3/3
f 335/4/3 328/4/3 334/4/3
f 336/4/3 319/4/3 329/4/3
f 336/3/3 329/3/3 335/3/3
f 337/4/3 319/4/3 336/4/3
f 338/3/3 336/3/3 335/3/3
f 339/3/3 336/3/3 338/3/3
f 342/5/3 341/5/3 340/5/3
f 343/5/3 341/5/3 342/5/3
f 353/5/3 345/5/3 344/5/3
f 354/4/3 346/4/3 345/4/3
f 354/5/3 345/5/3 353/5/3
f 355/3/3 347/3/3 346/3/3
f 355/4/3 346/4/3 354/4/3
f 356/2/3 348/2/3 347/2/3
f 356/3/3 347/3/3 355/3/3
f 357/4/3 349/4/3 348/4/3
f 357/2/3 348/2/3 356/2/3
f 358/4/3 349/4/3 357/4/3
f 359/4/3 351/4/3 350/4/3
f 360/4/3 351/4/3 359/4/3
f 362/5/3 353/5/3 352/5/3
f 363/5/3 353/5/3 362/5/3
f 370/4/3 361/4/3 360/4/3
f 371/4/3 361/4/3 370/4/3
f 372/5/3 364/5/3 363/5/3
f 373/4/3 365/4/3 364/4/3
f 373/5/3 364/5/3 372/5/3
f 374/3/3 366/3/3 365/3/3
f 374/4/3 365/4/3 373/4/3
f 375/2/3 367/2/3 366/2/3
f 375/3/3 366/3/3 374/3/3
f 376/4/3 368/4/3 367/4/3
f 376/2/3 367/2/3 375/2/3
f 377/4/3 368/4/3 376/4/3
f 378/4/3 370/4/3 369/4/3
f 379/4/3 370/4/3 378/4/3
f 384/5/3 381/5/3 380/5/3
f 385/4/3 382/4/3 381/4/3
f 385/5/3 381/5/3 384/5/3
f 386/4/3 382/4/3 385/4/3
f 387/4/3 382/4/3 386/4/3
f 388/4/3 382/4/3 387/4/3
f 389/4/3 382/4/3 388/4/3
f 390/4/3 382/4/3 389/4/3
f 391/4/3 382/4/3 390/4/3
f 392/5/3 384/5/3 383/5/3
f 393/5/3 384/5/3 392/5/3
f 394/4/3 382/4/3 391/4/3
f 395/4/3 382/4/3 394/4/3
f 400/4/3 396/4/3 395/4/3
f 401/4/3 396/4/3 400/4/3
f 402/5/3 398/5/3 397/5/3
f 403/5/3 398/5/3 402/5/3
f 410/4/3 400/4/3 399/4/3
f 411/4/3 400/4/3 410/4/3
f 412/5/3 404/5/3 403/5/3
f 413/4/3 409/4/3 408/4/3
f 413/5/3 404/5/3 412/5/3
f 413/4/3 410/4/3 409/4/3
f 413/4/3 405/4/3 404/4/3
f 413/4/3 408/4/3 407/4/3
f 413/4/3 407/4/3 406/4/3
f 413/4/3 406/4/3 405/4/3
f 414/4/3 410/4/3 413/4/3
f 419/5/3 416/5/3 415/5/3
f 420/4/3 417/4/3 416/4/3
f 420/5/3 416/5/3 419/5/3
f 421/4/3 417/4/3 420/4/3
f 422/5/3 419/5/3 418/5/3
f 423/5/3 419/5/3 422/5/3
f 426/4/3 425/4/3 424/4/3
f 427/4/3 425/4/3 426/4/3
f 430/4/3 428/4/3 427/4/3
f 431/4/3 428/4/3 430/4/3
f 435/4/3 430/4/3 429/4/3
f 436/4/3 430/4/3 435/4/3
f 437/5/3 433/5/3 432/5/3
f 438/5/3 433/5/3 437/5/3
f 440/4/3 435/4/3 434/4/3
f 441/4/3 435/4/3 440/4/3
f 442/5/3 439/5/3 438/5/3
f 443/4/3 440/4/3 439/4/3
f 443/5/3 439/5/3 442/5/3
f 444/4/3 440/4/3 443/4/3
f 447/4/3 446/4/3 445/4/3
f 448/4/3 446/4/3 447/4/3
f 452/5/3 450/5/3 449/5/3
f 453/5/3 450/5/3 452/5/3
f 454/1/3 451/1/3 450/1/3
f 454/5/3 450/5/3 453/5/3
f 455/1/3 451/1/3 454/1/3
f 460/5/3 457/5/3 456/5/3
f 460/5/3 458/5/3 457/5/3
f 461/1/3 459/1/3 458/1/3
f 461/5/3 458/5/3 460/5/3
f 462/1/3 459/1/3 461/1/3
f 465/4/3 464/4/3 463/4/3
f 466/4/3 464/4/3 465/4/3
f 467/5/4 468/5/4 469/5/4
f 469/5/4 468/5/4 470/5/4
f 471/5/4 472/5/4 473/5/4
f 473/5/4 472/5/4 474/5/4
f 475/5/4 476/5/4 477/5/4
f 477/5/4 476/5/4 478/5/4
f 479/5/4 480/5/4 481/5/4
f 481/5/4 480/5/4 482/5/4
f 483/4/4 484/4/4 485/4/4
f 485/4/4 484/4/4 486/4/4
f 487/5/4 488/5/4 490/5/4
f 490/5/4 488/5/4 491/5/4
f 488/1/4 489/1/4 492/1/4
f 491/5/4 488/5/4 492/5/4
f 492/1/4 489/1/4 493/1/4
f 494/5/4 495/5/4 498/5/4
f 495/5/4 496/5/4 498/5/4
f 496/1/4 497/1/4 499/1/4
f 498/5/4 496/5/4 499/5/4
f 499/1/4 497/1/4 500/1/4
f 501/4/4 502/4/4 503/4/4
f 503/4/4 502/4/4 504/4/4
f 505/5/4 506/5/4 509/5/4
f 506/4/4 507/4/4 510/4/4
f 509/5/4 506/5/4 510/5/4
f 510/4/4 507/4/4 511/4/4
f 508/5/4 509/5/4 513/5/4
f 513/5/4 509/5/4 514/5/4
f 511/4/4 512/4/4 515/4/4
f 515/4/4 512/4/4 516/4/4
f 516/4/4 517/4/4 518/4/4
f 518/4/4 517/4/4 519/4/4
f 519/4/4 520/4/4 522/4/4
f 522/4/4 520/4/4 523/4/4
f 521/4/4 522/4/4 527/4/4
f 527/4/4 522/4/4 528/4/4
f 524/5/4 525/5/4 529/5/4
f 529/5/4 525/5/4 530/5/4
f 526/4/4 527/4/4 532/4/4
f 532/4/4 527/4/4 533/4/4
f 530/5/4 531/5/4 534/5/4
f 531/4/4 532/4/4 535/4/4
f 534/5/4 531/5/4 535/5/4
f 535/4/4 532/4/4 536/4/4
f 537/5/4 538/5/4 541/5/4
f 538/4/4 539/4/4 542/4/4
f 541/5/4 538/5/4 542/5/4
f 542/4/4 539/4/4 543/4/4
f 540/5/4 541/5/4 545/5/4
f 545/5/4 541/5/4 546/5/4
f 543/4/4 544/4/4 547/4/4
f 547/4/4 544/4/4 548/4/4
f 548/4/4 549/4/4 553/4/4
f 553/4/4 549/4/4 554/4/4
f 550/5/4 551/5/4 555/5/4
f 555/5/4 551/5/4 556/5/4
f 552/4/4 553/4/4 558/4/4
f 558/4/4 553/4/4 559/4/4
f 556/5/4 557/5/4 560/5/4
f 557/4/4 558/4/4 561/4/4
f 560/5/4 557/5/4 561/5/4
f 561/4/4 558/4/4 562/4/4
f 563/5/4 564/5/4 567/5/4
f 564/4/4 565/4/4 568/4/4
f 567/5/4 564/5/4 568/5/4
f 568/4/4 565/4/4 569/4/4
f 566/5/4 567/5/4 571/5/4
f 571/5/4 567/5/4 572/5/4
f 569/4/4 570/4/4 574/4/4
f 574/4/4 570/4/4 575/4/4
f 572/5/4 573/5/4 576/5/4
f 573/4/4 574/4/4 577/4/4
f 576/5/4 573/5/4 577/5/4
f 577/4/4 574/4/4 578/4/4
f 579/5/4 580/5/4 582/5/4
f 580/4/4 581/4/4 583/4/4
f 582/5/4 580/5/4 583/5/4
f 583/4/4 581/4/4 584/4/4
f 588/5/5 586/5/5 585/5/5
f 589/5/5 586/5/5 588/5/5
f 592/5/5 588/5/5 587/5/5
f 592/5/5 590/5/5 589/5/5
f 592/5/5 589/5/5 588/5/5
f 593/5/5 590/5/5 592/5/5
f 595/5/5 592/5/5 591/5/5
f 595/5/5 594/5/5 593/5/5
f 595/5/5 593/5/5 592/5/5
f 596/5/5 594/5/5 595/5/5
f 597/5/5 594/5/5 596/5/5
f 598/5/5 594/5/5 597/5/5
f 599/5/5 597/5/5 596/5/5
f 600/5/5 597/5/5 599/5/5
f 601/5/5 597/5/5 600/5/5
f 602/5/5 597/5/5 601/5/5
f 603/5/5 601/5/5 600/5/5
f 604/5/5 601/5/5 603/5/5
f 608/5/5 606/5/5 605/5/5
f 609/5/5 606/5/5 608/5/5
f 612/5/5 608/5/5 607/5/5
f 613/5/5 608/5/5 612/5/5
f 614/5/5 610/5/5 609/5/5
f 615/5/5 610/5/5 614/5/5
f 618/5/5 612/5/5 611/5/5
f 619/5/5 612/5/5 618/5/5
f 620/5/5 616/5/5 615/5/5
f 621/5/5 616/5/5 620/5/5
f 623/5/5 618/5/5 617/5/5
f 624/5/5 618/5/5 623/5/5
f 627/5/5 622/5/5 621/5/5
f 628/5/5 622/5/5 627/5/5
f 629/5/5 625/5/5 624/5/5
f 630/5/5 625/5/5 629/5/5
f 633/5/5 627/5/5 626/5/5
f 634/5/5 627/5/5 633/5/5
f 635/5/5 631/5/5 630/5/5
f 636/5/5 631/5/5 635/5/5
f 637/5/5 633/5/5 632/5/5
f 638/5/5 633/5/5 637/5/5
f 639/5/5 637/5/5 636/5/5
f 640/5/5 637/5/5 639/5/5
f 649/5/5 642/5/5 641/5/5
f 650/5/5 644/5/5 643/5/5
f 651/5/5 646/5/5 645/5/5
f 652/5/5 648/5/5 647/5/5
f 653/5/5 649/5/5 641/5/5
f 653/5/5 650/5/5 649/5/5
f 654/5/5 650/5/5 653/5/5
f 655/5/5 644/5/5 650/5/5
f 655/5/5 650/5/5 654/5/5
f 656/5/5 644/5/5 655/5/5
f 657/5/5 651/5/5 645/5/5
f 657/5/5 652/5/5 651/5/5
f 658/5/5 652/5/5 657/5/5
f 659/5/5 648/5/5 652/5/5
f 659/5/5 652/5/5 658/5/5
f 660/5/5 648/5/5 659/5/5
f 661/4/5 655/4/5 654/4/5
f 664/4/5 659/4/5 658/4/5
f 665/4/5 662/4/5 661/4/5
f 665/4/5 661/4/5 654/4/5
f 666/4/5 662/4/5 665/4/5
f 667/4/5 664/4/5 663/4/5
f 668/4/5 659/4/5 664/4/5
f 668/4/5 664/4/5 667/4/5
f 673/3/5 670/3/5 669/3/5
f 674/3/5 670/3/5 673/3/5
f 675/3/5 672/3/5 671/3/5
f 676/3/5 672/3/5 675/3/5
f 677/5/6 678/5/6 685/5/6
f 679/5/6 680/5/6 686/5/6
f 681/5/6 682/5/6 687/5/6
f 683/5/6 684/5/6 688/5/6
f 677/5/6 685/5/6 689/5/6
f 685/5/6 686/5/6 689/5/6
f 689/5/6 686/5/6 690/5/6
f 686/5/6 680/5/6 691/5/6
f 690/5/6 686/5/6 691/5/6
f 691/5/6 680/5/6 692/5/6
f 681/5/6 687/5/6 693/5/6
f 687/5/6 688/5/6 693/5/6
f 693/5/6 688/5/6 694/5/6
f 688/5/6 684/5/6 695/5/6
f 694/5/6 688/5/6 695/5/6
f 695/5/6 684/5/6 696/5/6
f 690/4/6 691/4/6 697/4/6
f 694/4/6 695/4/6 700/4/6
f 697/4/6 698/4/6 701/4/6
f 690/4/6 697/4/6 701/4/6
f 701/4/6 698/4/6 702/4/6
f 699/4/6 700/4/6 703/4/6
f 700/4/6 695/4/6 704/4/6
f 703/4/6 700/4/6 704/4/6
f 705/3/6 706/3/6 709/3/6
f 709/3/6 706/3/6 710/3/6
f 707/3/6 708/3/6 711/3/6
f 711/3/6 708/3/6 712/3/6
f 713/4/6 714/4/6 716/4/6
f 716/4/6 714/4/6 717/4/6
f 715/4/6 716/4/6 719/4/6
f 719/4/6 716/4/6 720/4/6
f 717/4/6 718/4/6 721/4/6
f 721/4/6 718/4/6 722/4/6
f 722/4/6 723/4/6 726/4/6
f 726/4/6 723/4/6 727/4/6
f 724/4/6 725/4/6 729/4/6
f 729/4/6 725/4/6 730/4/6
f 727/4/6 728/4/6 733/4/6
f 733/4/6 728/4/6 734/4/6
f 730/4/6 731/4/6 735/4/6
f 735/4/6 731/4/6 736/4/6
f 732/4/6 733/4/6 739/4/6
f 739/4/6 733/4/6 740/4/6
f 736/4/6 737/4/6 741/4/6
f 741/4/6 737/4/6 742/4/6
f 738/4/6 739/4/6 743/4/6
f 743/4/6 739/4/6 744/4/6
f 742/4/6 743/4/6 745/4/6
f 745/4/6 743/4/6 746/4/6
f 747/4/6 748/4/6 750/4/6
f 750/4/6 748/4/6 751/4/6
f 749/4/6 750/4/6 753/4/6
f 753/4/6 750/4/6 754/4/6
f 751/4/6 752/4/6 755/4/6
f 755/4/6 752/4/6 756/4/6
f 749/4/6 753/4/6 758/4/6
f 758/4/6 753/4/6 759/4/6
f 756/4/6 757/4/6 762/4/6
f 762/4/6 757/4/6 763/4/6
f 759/4/6 760/4/6 764/4/6
f 764/4/6 760/4/6 765/4/6
f 761/4/6 762/4/6 766/4/6
f 766/4/6 762/4/6 767/4/6
f 765/4/6 766/4/6 768/4/6
f 768/4/6 766/4/6 769/4/6
f 770/4/6 771/4/6 773/4/6
f 773/4/6 771/4/6 774/4/6
f 772/4/6 773/4/6 776/4/6
f 776/4/6 773/4/6 777/4/6
f 774/4/6 775/4/6 778/4/6
f 778/4/6 775/4/6 779/4/6
f 780/4/6 781/4/6 784/4/6
f 784/4/6 781/4/6 785/4/6
f 782/4/6 783/4/6 786/4/6
f 786/4/6 783/4/6 787/4/6
f 785/4/6 786/4/6 788/4/6
f 788/4/6 786/4/6 789/4/6
f 790/4/6 791/4/6 792/4/6
f 792/4/6 791/4/6 793/4/6
f 792/4/6 793/4/6 794/4/6
f 794/4/6 793/4/6 795/4/6
f 794/4/6 795/4/6 796/4/6
f 796/4/6 795/4/6 797/4/6
f 798/1/6 799/1/6 802/1/6
f 802/1/6 799/1/6 803/1/6
f 800/1/6 801/1/6 804/1/6
f 804/1/6 801/1/6 805/1/6
