# MagicaVoxel @ Ephtracy

# material
mtllib star.mtl
usemtl palette

# normals
vn -1 0 0
vn 1 0 0
vn 0 0 1
vn 0 0 -1
vn 0 -1 0
vn 0 1 0

# texcoords
vt 0.00195313 0.5
vt 0.0175781 0.5
vt 0.0214844 0.5

# verts
v -5 7 2
v -5 7 -4
v -5 8 2
v -5 8 -4
v -4 0 1
v -4 0 -3
v -4 1 2
v -4 1 1
v -4 1 -3
v -4 1 -4
v -4 2 2
v -4 2 -4
v -4 6 2
v -4 6 -4
v -4 7 2
v -4 7 -4
v -3 2 2
v -3 2 -4
v -3 3 2
v -3 3 -4
v -3 5 2
v -3 5 -4
v -3 6 2
v -3 6 -4
v -2 3 2
v -2 3 -4
v -2 5 2
v -2 5 -4
v -2 8 2
v -2 8 -4
v -2 9 2
v -2 9 -4
v -1 4 3
v -1 4 2
v -1 4 -4
v -1 4 -5
v -1 7 3
v -1 7 2
v -1 7 -4
v -1 7 -5
v -1 9 1
v -1 9 -3
v -1 10 -2
v -1 10 -3
v -1 11 1
v -1 11 -2
v -1 11 -3
v 2 1 2
v 2 1 -4
v 2 2 2
v 2 2 -4
v 3 0 1
v 3 0 -3
v 3 1 1
v 3 1 -3
v -3 0 1
v -3 0 -3
v -3 1 1
v -3 1 -3
v -2 1 2
v -2 1 -4
v -2 2 2
v -2 2 -4
v 1 4 3
v 1 4 2
v 1 4 -4
v 1 4 -5
v 1 7 3
v 1 7 2
v 1 7 -4
v 1 7 -5
v 1 9 1
v 1 9 -3
v 1 10 -2
v 1 10 -3
v 1 11 1
v 1 11 -2
v 1 11 -3
v 2 3 2
v 2 3 -4
v 2 5 2
v 2 5 -4
v 2 8 2
v 2 8 -4
v 2 9 2
v 2 9 -4
v 3 2 2
v 3 2 -4
v 3 3 2
v 3 3 -4
v 3 5 2
v 3 5 -4
v 3 6 2
v 3 6 -4
v 4 0 1
v 4 0 -3
v 4 1 2
v 4 1 1
v 4 1 -3
v 4 1 -4
v 4 2 2
v 4 2 -4
v 4 6 2
v 4 6 -4
v 4 7 2
v 4 7 -4
v 5 7 2
v 5 7 -4
v 5 8 2
v 5 8 -4
v -1 4 3
v -1 7 3
v 1 4 3
v 1 7 3
v -5 7 2
v -5 8 2
v -4 1 2
v -4 2 2
v -4 6 2
v -4 7 2
v -3 2 2
v -3 3 2
v -3 5 2
v -3 6 2
v -2 1 2
v -2 2 2
v -2 3 2
v -2 5 2
v -2 8 2
v -2 9 2
v -1 4 2
v -1 7 2
v 1 4 2
v 1 7 2
v 2 1 2
v 2 2 2
v 2 3 2
v 2 5 2
v 2 8 2
v 2 9 2
v 3 2 2
v 3 3 2
v 3 5 2
v 3 6 2
v 4 1 2
v 4 2 2
v 4 6 2
v 4 7 2
v 5 7 2
v 5 8 2
v -4 0 1
v -4 1 1
v -3 0 1
v -3 1 1
v -1 9 1
v -1 11 1
v 1 9 1
v 1 11 1
v 3 0 1
v 3 1 1
v 4 0 1
v 4 1 1
v -4 0 -3
v -4 1 -3
v -3 0 -3
v -3 1 -3
v -1 9 -3
v -1 10 -3
v -1 11 -3
v 1 9 -3
v 1 10 -3
v 1 11 -3
v 3 0 -3
v 3 1 -3
v 4 0 -3
v 4 1 -3
v -5 7 -4
v -5 8 -4
v -4 1 -4
v -4 2 -4
v -4 6 -4
v -4 7 -4
v -3 2 -4
v -3 3 -4
v -3 5 -4
v -3 6 -4
v -2 1 -4
v -2 2 -4
v -2 3 -4
v -2 5 -4
v -2 8 -4
v -2 9 -4
v -1 4 -4
v -1 7 -4
v 1 4 -4
v 1 7 -4
v 2 1 -4
v 2 2 -4
v 2 3 -4
v 2 5 -4
v 2 8 -4
v 2 9 -4
v 3 2 -4
v 3 3 -4
v 3 5 -4
v 3 6 -4
v 4 1 -4
v 4 2 -4
v 4 6 -4
v 4 7 -4
v 5 7 -4
v 5 8 -4
v -1 4 -5
v -1 7 -5
v 1 4 -5
v 1 7 -5
v -4 0 1
v -3 0 1
v 3 0 1
v 4 0 1
v -4 0 -3
v -3 0 -3
v 3 0 -3
v 4 0 -3
v -4 1 2
v -2 1 2
v 2 1 2
v 4 1 2
v -4 1 1
v -3 1 1
v 3 1 1
v 4 1 1
v -4 1 -3
v -3 1 -3
v 3 1 -3
v 4 1 -3
v -4 1 -4
v -2 1 -4
v 2 1 -4
v 4 1 -4
v -2 2 2
v 2 2 2
v -2 2 -4
v 2 2 -4
v -1 4 3
v 1 4 3
v -1 4 2
v 1 4 2
v -1 4 -4
v 1 4 -4
v -1 4 -5
v 1 4 -5
v -3 5 2
v -2 5 2
v 2 5 2
v 3 5 2
v -3 5 -4
v -2 5 -4
v 2 5 -4
v 3 5 -4
v -4 6 2
v -3 6 2
v 3 6 2
v 4 6 2
v -4 6 -4
v -3 6 -4
v 3 6 -4
v 4 6 -4
v -5 7 2
v -4 7 2
v 4 7 2
v 5 7 2
v -5 7 -4
v -4 7 -4
v 4 7 -4
v 5 7 -4
v -4 2 2
v -3 2 2
v 3 2 2
v 4 2 2
v -4 2 -4
v -3 2 -4
v 3 2 -4
v 4 2 -4
v -3 3 2
v -2 3 2
v 2 3 2
v 3 3 2
v -3 3 -4
v -2 3 -4
v 2 3 -4
v 3 3 -4
v -1 7 3
v 1 7 3
v -1 7 2
v 1 7 2
v -1 7 -4
v 1 7 -4
v -1 7 -5
v 1 7 -5
v -5 8 2
v -2 8 2
v 2 8 2
v 5 8 2
v -5 8 -4
v -2 8 -4
v 2 8 -4
v 5 8 -4
v -2 9 2
v 2 9 2
v -1 9 1
v 1 9 1
v -1 9 -3
v 1 9 -3
v -2 9 -4
v 2 9 -4
v -1 11 1
v 1 11 1
v -1 11 -2
v 1 11 -2
v -1 11 -3
v 1 11 -3

# faces
f 3/3/1 2/3/1 1/3/1
f 4/3/1 2/3/1 3/3/1
f 8/3/1 6/3/1 5/3/1
f 9/3/1 6/3/1 8/3/1
f 11/3/1 8/3/1 7/3/1
f 11/3/1 10/3/1 9/3/1
f 11/3/1 9/3/1 8/3/1
f 12/3/1 10/3/1 11/3/1
f 15/3/1 14/3/1 13/3/1
f 16/3/1 14/3/1 15/3/1
f 19/3/1 18/3/1 17/3/1
f 20/3/1 18/3/1 19/3/1
f 23/3/1 22/3/1 21/3/1
f 24/3/1 22/3/1 23/3/1
f 27/3/1 26/3/1 25/3/1
f 28/3/1 26/3/1 27/3/1
f 31/3/1 30/3/1 29/3/1
f 32/3/1 30/3/1 31/3/1
f 37/1/1 34/1/1 33/1/1
f 38/1/1 34/1/1 37/1/1
f 39/1/1 36/1/1 35/1/1
f 40/1/1 36/1/1 39/1/1
f 43/3/1 42/3/1 41/3/1
f 44/3/1 42/3/1 43/3/1
f 45/3/1 43/3/1 41/3/1
f 46/2/1 44/2/1 43/2/1
f 46/3/1 43/3/1 45/3/1
f 47/2/1 44/2/1 46/2/1
f 50/3/1 49/3/1 48/3/1
f 51/3/1 49/3/1 50/3/1
f 54/3/1 53/3/1 52/3/1
f 55/3/1 53/3/1 54/3/1
f 56/3/2 57/3/2 58/3/2
f 58/3/2 57/3/2 59/3/2
f 60/3/2 61/3/2 62/3/2
f 62/3/2 61/3/2 63/3/2
f 64/1/2 65/1/2 68/1/2
f 68/1/2 65/1/2 69/1/2
f 66/1/2 67/1/2 70/1/2
f 70/1/2 67/1/2 71/1/2
f 72/3/2 73/3/2 74/3/2
f 74/3/2 73/3/2 75/3/2
f 72/3/2 74/3/2 76/3/2
f 74/2/2 75/2/2 77/2/2
f 76/3/2 74/3/2 77/3/2
f 77/2/2 75/2/2 78/2/2
f 79/3/2 80/3/2 81/3/2
f 81/3/2 80/3/2 82/3/2
f 83/3/2 84/3/2 85/3/2
f 85/3/2 84/3/2 86/3/2
f 87/3/2 88/3/2 89/3/2
f 89/3/2 88/3/2 90/3/2
f 91/3/2 92/3/2 93/3/2
f 93/3/2 92/3/2 94/3/2
f 95/3/2 96/3/2 98/3/2
f 98/3/2 96/3/2 99/3/2
f 97/3/2 98/3/2 101/3/2
f 99/3/2 100/3/2 101/3/2
f 98/3/2 99/3/2 101/3/2
f 101/3/2 100/3/2 102/3/2
f 103/3/2 104/3/2 105/3/2
f 105/3/2 104/3/2 106/3/2
f 107/3/2 108/3/2 109/3/2
f 109/3/2 108/3/2 110/3/2
f 113/1/3 112/1/3 111/1/3
f 114/1/3 112/1/3 113/1/3
f 120/3/3 116/3/3 115/3/3
f 121/3/3 118/3/3 117/3/3
f 124/3/3 120/3/3 119/3/3
f 125/3/3 122/3/3 121/3/3
f 125/3/3 121/3/3 117/3/3
f 126/3/3 122/3/3 125/3/3
f 127/3/3 122/3/3 126/3/3
f 128/3/3 124/3/3 123/3/3
f 129/3/3 116/3/3 120/3/3
f 129/3/3 120/3/3 124/3/3
f 129/3/3 124/3/3 128/3/3
f 131/3/3 127/3/3 126/3/3
f 131/3/3 130/3/3 129/3/3
f 131/3/3 129/3/3 128/3/3
f 131/3/3 128/3/3 127/3/3
f 132/3/3 130/3/3 131/3/3
f 133/3/3 131/3/3 126/3/3
f 134/3/3 130/3/3 132/3/3
f 136/3/3 133/3/3 126/3/3
f 136/3/3 134/3/3 133/3/3
f 137/3/3 134/3/3 136/3/3
f 138/3/3 134/3/3 137/3/3
f 139/3/3 130/3/3 134/3/3
f 139/3/3 134/3/3 138/3/3
f 140/3/3 130/3/3 139/3/3
f 141/3/3 136/3/3 135/3/3
f 141/3/3 137/3/3 136/3/3
f 142/3/3 137/3/3 141/3/3
f 143/3/3 139/3/3 138/3/3
f 144/3/3 139/3/3 143/3/3
f 145/3/3 141/3/3 135/3/3
f 146/3/3 141/3/3 145/3/3
f 147/3/3 139/3/3 144/3/3
f 148/3/3 139/3/3 147/3/3
f 149/3/3 139/3/3 148/3/3
f 150/3/3 139/3/3 149/3/3
f 153/3/3 152/3/3 151/3/3
f 154/3/3 152/3/3 153/3/3
f 157/3/3 156/3/3 155/3/3
f 158/3/3 156/3/3 157/3/3
f 161/3/3 160/3/3 159/3/3
f 162/3/3 160/3/3 161/3/3
f 163/3/4 164/3/4 165/3/4
f 165/3/4 164/3/4 166/3/4
f 167/3/4 168/3/4 170/3/4
f 168/2/4 169/2/4 171/2/4
f 170/3/4 168/3/4 171/3/4
f 171/2/4 169/2/4 172/2/4
f 173/3/4 174/3/4 175/3/4
f 175/3/4 174/3/4 176/3/4
f 177/3/4 178/3/4 182/3/4
f 179/3/4 180/3/4 183/3/4
f 181/3/4 182/3/4 186/3/4
f 183/3/4 184/3/4 187/3/4
f 179/3/4 183/3/4 187/3/4
f 187/3/4 184/3/4 188/3/4
f 188/3/4 184/3/4 189/3/4
f 185/3/4 186/3/4 190/3/4
f 182/3/4 178/3/4 191/3/4
f 186/3/4 182/3/4 191/3/4
f 190/3/4 186/3/4 191/3/4
f 188/3/4 189/3/4 193/3/4
f 191/3/4 192/3/4 193/3/4
f 190/3/4 191/3/4 193/3/4
f 189/3/4 190/3/4 193/3/4
f 193/3/4 192/3/4 194/3/4
f 188/3/4 193/3/4 195/3/4
f 194/3/4 192/3/4 196/3/4
f 188/3/4 195/3/4 198/3/4
f 195/3/4 196/3/4 198/3/4
f 198/3/4 196/3/4 199/3/4
f 199/3/4 196/3/4 200/3/4
f 196/3/4 192/3/4 201/3/4
f 200/3/4 196/3/4 201/3/4
f 201/3/4 192/3/4 202/3/4
f 197/3/4 198/3/4 203/3/4
f 198/3/4 199/3/4 203/3/4
f 203/3/4 199/3/4 204/3/4
f 200/3/4 201/3/4 205/3/4
f 205/3/4 201/3/4 206/3/4
f 197/3/4 203/3/4 207/3/4
f 207/3/4 203/3/4 208/3/4
f 206/3/4 201/3/4 209/3/4
f 209/3/4 201/3/4 210/3/4
f 210/3/4 201/3/4 211/3/4
f 211/3/4 201/3/4 212/3/4
f 213/1/4 214/1/4 215/1/4
f 215/1/4 214/1/4 216/1/4
f 221/3/5 218/3/5 217/3/5
f 222/3/5 218/3/5 221/3/5
f 223/3/5 220/3/5 219/3/5
f 224/3/5 220/3/5 223/3/5
f 229/3/5 226/3/5 225/3/5
f 230/3/5 226/3/5 229/3/5
f 231/3/5 228/3/5 227/3/5
f 232/3/5 228/3/5 231/3/5
f 234/3/5 226/3/5 230/3/5
f 235/3/5 231/3/5 227/3/5
f 237/3/5 234/3/5 233/3/5
f 238/3/5 226/3/5 234/3/5
f 238/3/5 234/3/5 237/3/5
f 239/3/5 236/3/5 235/3/5
f 239/3/5 235/3/5 227/3/5
f 240/3/5 236/3/5 239/3/5
f 243/3/5 242/3/5 241/3/5
f 244/3/5 242/3/5 243/3/5
f 247/1/5 246/1/5 245/1/5
f 248/1/5 246/1/5 247/1/5
f 251/1/5 250/1/5 249/1/5
f 252/1/5 250/1/5 251/1/5
f 257/3/5 254/3/5 253/3/5
f 258/3/5 254/3/5 257/3/5
f 259/3/5 256/3/5 255/3/5
f 260/3/5 256/3/5 259/3/5
f 265/3/5 262/3/5 261/3/5
f 266/3/5 262/3/5 265/3/5
f 267/3/5 264/3/5 263/3/5
f 268/3/5 264/3/5 267/3/5
f 273/3/5 270/3/5 269/3/5
f 274/3/5 270/3/5 273/3/5
f 275/3/5 272/3/5 271/3/5
f 276/3/5 272/3/5 275/3/5
f 277/3/6 278/3/6 281/3/6
f 281/3/6 278/3/6 282/3/6
f 279/3/6 280/3/6 283/3/6
f 283/3/6 280/3/6 284/3/6
f 285/3/6 286/3/6 289/3/6
f 289/3/6 286/3/6 290/3/6
f 287/3/6 288/3/6 291/3/6
f 291/3/6 288/3/6 292/3/6
f 293/1/6 294/1/6 295/1/6
f 295/1/6 294/1/6 296/1/6
f 297/1/6 298/1/6 299/1/6
f 299/1/6 298/1/6 300/1/6
f 301/3/6 302/3/6 305/3/6
f 305/3/6 302/3/6 306/3/6
f 303/3/6 304/3/6 307/3/6
f 307/3/6 304/3/6 308/3/6
f 309/3/6 310/3/6 311/3/6
f 311/3/6 310/3/6 312/3/6
f 309/3/6 311/3/6 313/3/6
f 312/3/6 310/3/6 314/3/6
f 309/3/6 313/3/6 315/3/6
f 313/3/6 314/3/6 315/3/6
f 314/3/6 310/3/6 316/3/6
f 315/3/6 314/3/6 316/3/6
f 317/3/6 318/3/6 319/3/6
f 319/3/6 318/3/6 320/3/6
f 319/2/6 320/2/6 321/2/6
f 321/2/6 320/2/6 322/2/6
