# MagicaVoxel @ Ephtracy

# group
o 

# material
mtllib road.mtl
usemtl palette

# normals
vn -1 0 0
vn 1 0 0
vn 0 0 1
vn 0 0 -1
vn 0 -1 0
vn 0 1 0

# texcoords
vt 0.0214844 0.5
vt 0.498047 0.5
vt 0.501953 0.5
vt 0.966797 0.5
vt 0.982422 0.5

# verts
v -5 0 5
v -5 0 -5
v -5 0.1 5
v -5 0.1 -5
v 5 0 5
v 5 0 -5
v 5 0.1 5
v 5 0.1 -5
v -5 0 5
v -5 0.1 5
v -4.9 0 5
v -4.9 0.1 5
v -3.1 0 5
v -3.1 0.1 5
v -2.9 0 5
v -2.9 0.1 5
v -1.1 0 5
v -1.1 0.1 5
v -0.9 0 5
v -0.9 0.1 5
v 0.9 0 5
v 0.9 0.1 5
v 1.1 0 5
v 1.1 0.1 5
v 2.9 0 5
v 2.9 0.1 5
v 3.1 0 5
v 3.1 0.1 5
v 4.9 0 5
v 4.9 0.1 5
v 5 0 5
v 5 0.1 5
v -5 0 -5
v -5 0.1 -5
v -4.9 0 -5
v -4.9 0.1 -5
v -3.1 0 -5
v -3.1 0.1 -5
v -2.9 0 -5
v -2.9 0.1 -5
v -1.1 0 -5
v -1.1 0.1 -5
v -0.9 0 -5
v -0.9 0.1 -5
v 0.9 0 -5
v 0.9 0.1 -5
v 1.1 0 -5
v 1.1 0.1 -5
v 2.9 0 -5
v 2.9 0.1 -5
v 3.1 0 -5
v 3.1 0.1 -5
v 4.9 0 -5
v 4.9 0.1 -5
v 5 0 -5
v 5 0.1 -5
v -5 0 5
v -4.9 0 5
v -3.1 0 5
v -2.9 0 5
v -1.1 0 5
v -0.9 0 5
v 0.9 0 5
v 1.1 0 5
v 2.9 0 5
v 3.1 0 5
v 4.9 0 5
v 5 0 5
v -3.1 0 2.5
v -2.9 0 2.5
v -1.1 0 2.5
v -0.9 0 2.5
v 0.9 0 2.5
v 1.1 0 2.5
v 2.9 0 2.5
v 3.1 0 2.5
v -3.1 0 0
v -2.9 0 0
v -1.1 0 0
v -0.9 0 0
v 0.9 0 0
v 1.1 0 0
v 2.9 0 0
v 3.1 0 0
v -3.1 0 -2.5
v -2.9 0 -2.5
v -1.1 0 -2.5
v -0.9 0 -2.5
v 0.9 0 -2.5
v 1.1 0 -2.5
v 2.9 0 -2.5
v 3.1 0 -2.5
v -5 0 -5
v -4.9 0 -5
v -3.1 0 -5
v -2.9 0 -5
v -1.1 0 -5
v -0.9 0 -5
v 0.9 0 -5
v 1.1 0 -5
v 2.9 0 -5
v 3.1 0 -5
v 4.9 0 -5
v 5 0 -5
v -5 0.1 5
v -4.9 0.1 5
v -3.1 0.1 5
v -2.9 0.1 5
v -1.1 0.1 5
v -0.9 0.1 5
v 0.9 0.1 5
v 1.1 0.1 5
v 2.9 0.1 5
v 3.1 0.1 5
v 4.9 0.1 5
v 5 0.1 5
v -3.1 0.1 2.5
v -2.9 0.1 2.5
v -1.1 0.1 2.5
v -0.9 0.1 2.5
v 0.9 0.1 2.5
v 1.1 0.1 2.5
v 2.9 0.1 2.5
v 3.1 0.1 2.5
v -3.1 0.1 0
v -2.9 0.1 0
v -1.1 0.1 0
v -0.9 0.1 0
v 0.9 0.1 0
v 1.1 0.1 0
v 2.9 0.1 0
v 3.1 0.1 0
v -3.1 0.1 -2.5
v -2.9 0.1 -2.5
v -1.1 0.1 -2.5
v -0.9 0.1 -2.5
v 0.9 0.1 -2.5
v 1.1 0.1 -2.5
v 2.9 0.1 -2.5
v 3.1 0.1 -2.5
v -5 0.1 -5
v -4.9 0.1 -5
v -3.1 0.1 -5
v -2.9 0.1 -5
v -1.1 0.1 -5
v -0.9 0.1 -5
v 0.9 0.1 -5
v 1.1 0.1 -5
v 2.9 0.1 -5
v 3.1 0.1 -5
v 4.9 0.1 -5
v 5 0.1 -5

# faces
f 3/5/1 2/5/1 1/5/1
f 4/5/1 2/5/1 3/5/1
f 5/5/2 6/5/2 7/5/2
f 7/5/2 6/5/2 8/5/2
f 11/5/3 10/5/3 9/5/3
f 12/5/3 10/5/3 11/5/3
f 13/2/3 12/2/3 11/2/3
f 14/2/3 12/2/3 13/2/3
f 15/1/3 14/1/3 13/1/3
f 16/1/3 14/1/3 15/1/3
f 17/3/3 16/3/3 15/3/3
f 18/3/3 16/3/3 17/3/3
f 19/1/3 18/1/3 17/1/3
f 20/1/3 18/1/3 19/1/3
f 21/2/3 20/2/3 19/2/3
f 22/2/3 20/2/3 21/2/3
f 23/1/3 22/1/3 21/1/3
f 24/1/3 22/1/3 23/1/3
f 25/3/3 24/3/3 23/3/3
f 26/3/3 24/3/3 25/3/3
f 27/1/3 26/1/3 25/1/3
f 28/1/3 26/1/3 27/1/3
f 29/2/3 28/2/3 27/2/3
f 30/2/3 28/2/3 29/2/3
f 31/5/3 30/5/3 29/5/3
f 32/5/3 30/5/3 31/5/3
f 33/5/4 34/5/4 35/5/4
f 35/5/4 34/5/4 36/5/4
f 35/2/4 36/2/4 37/2/4
f 37/2/4 36/2/4 38/2/4
f 37/4/4 38/4/4 39/4/4
f 39/4/4 38/4/4 40/4/4
f 39/3/4 40/3/4 41/3/4
f 41/3/4 40/3/4 42/3/4
f 41/4/4 42/4/4 43/4/4
f 43/4/4 42/4/4 44/4/4
f 43/2/4 44/2/4 45/2/4
f 45/2/4 44/2/4 46/2/4
f 45/4/4 46/4/4 47/4/4
f 47/4/4 46/4/4 48/4/4
f 47/3/4 48/3/4 49/3/4
f 49/3/4 48/3/4 50/3/4
f 49/4/4 50/4/4 51/4/4
f 51/4/4 50/4/4 52/4/4
f 51/2/4 52/2/4 53/2/4
f 53/2/4 52/2/4 54/2/4
f 53/5/4 54/5/4 55/5/4
f 55/5/4 54/5/4 56/5/4
f 69/2/5 59/2/5 58/2/5
f 69/1/5 60/1/5 59/1/5
f 70/3/5 61/3/5 60/3/5
f 70/1/5 60/1/5 69/1/5
f 71/1/5 62/1/5 61/1/5
f 71/3/5 61/3/5 70/3/5
f 72/2/5 63/2/5 62/2/5
f 72/1/5 62/1/5 71/1/5
f 73/1/5 64/1/5 63/1/5
f 73/2/5 63/2/5 72/2/5
f 74/3/5 65/3/5 64/3/5
f 74/1/5 64/1/5 73/1/5
f 75/1/5 66/1/5 65/1/5
f 75/3/5 65/3/5 74/3/5
f 76/2/5 67/2/5 66/2/5
f 76/1/5 66/1/5 75/1/5
f 77/2/5 69/2/5 58/2/5
f 77/4/5 70/4/5 69/4/5
f 78/3/5 71/3/5 70/3/5
f 78/4/5 70/4/5 77/4/5
f 79/4/5 72/4/5 71/4/5
f 79/3/5 71/3/5 78/3/5
f 80/2/5 73/2/5 72/2/5
f 80/4/5 72/4/5 79/4/5
f 81/4/5 74/4/5 73/4/5
f 81/2/5 73/2/5 80/2/5
f 82/3/5 75/3/5 74/3/5
f 82/4/5 74/4/5 81/4/5
f 83/4/5 76/4/5 75/4/5
f 83/3/5 75/3/5 82/3/5
f 84/2/5 67/2/5 76/2/5
f 84/4/5 76/4/5 83/4/5
f 85/2/5 77/2/5 58/2/5
f 85/1/5 78/1/5 77/1/5
f 86/3/5 79/3/5 78/3/5
f 86/1/5 78/1/5 85/1/5
f 87/1/5 80/1/5 79/1/5
f 87/3/5 79/3/5 86/3/5
f 88/2/5 81/2/5 80/2/5
f 88/1/5 80/1/5 87/1/5
f 89/1/5 82/1/5 81/1/5
f 89/2/5 81/2/5 88/2/5
f 90/3/5 83/3/5 82/3/5
f 90/1/5 82/1/5 89/1/5
f 91/1/5 84/1/5 83/1/5
f 91/3/5 83/3/5 90/3/5
f 92/2/5 67/2/5 84/2/5
f 92/1/5 84/1/5 91/1/5
f 93/5/5 58/5/5 57/5/5
f 94/2/5 85/2/5 58/2/5
f 94/5/5 58/5/5 93/5/5
f 95/4/5 86/4/5 85/4/5
f 95/2/5 85/2/5 94/2/5
f 96/3/5 87/3/5 86/3/5
f 96/4/5 86/4/5 95/4/5
f 97/4/5 88/4/5 87/4/5
f 97/3/5 87/3/5 96/3/5
f 98/2/5 89/2/5 88/2/5
f 98/4/5 88/4/5 97/4/5
f 99/4/5 90/4/5 89/4/5
f 99/2/5 89/2/5 98/2/5
f 100/3/5 91/3/5 90/3/5
f 100/4/5 90/4/5 99/4/5
f 101/4/5 92/4/5 91/4/5
f 101/3/5 91/3/5 100/3/5
f 102/2/5 67/2/5 92/2/5
f 102/4/5 92/4/5 101/4/5
f 103/5/5 68/5/5 67/5/5
f 103/2/5 67/2/5 102/2/5
f 104/5/5 68/5/5 103/5/5
f 106/2/6 107/2/6 117/2/6
f 107/1/6 108/1/6 117/1/6
f 108/3/6 109/3/6 118/3/6
f 117/1/6 108/1/6 118/1/6
f 109/1/6 110/1/6 119/1/6
f 118/3/6 109/3/6 119/3/6
f 110/2/6 111/2/6 120/2/6
f 119/1/6 110/1/6 120/1/6
f 111/1/6 112/1/6 121/1/6
f 120/2/6 111/2/6 121/2/6
f 112/3/6 113/3/6 122/3/6
f 121/1/6 112/1/6 122/1/6
f 113/1/6 114/1/6 123/1/6
f 122/3/6 113/3/6 123/3/6
f 114/2/6 115/2/6 124/2/6
f 123/1/6 114/1/6 124/1/6
f 106/2/6 117/2/6 125/2/6
f 117/4/6 118/4/6 125/4/6
f 118/3/6 119/3/6 126/3/6
f 125/4/6 118/4/6 126/4/6
f 119/4/6 120/4/6 127/4/6
f 126/3/6 119/3/6 127/3/6
f 120/2/6 121/2/6 128/2/6
f 127/4/6 120/4/6 128/4/6
f 121/4/6 122/4/6 129/4/6
f 128/2/6 121/2/6 129/2/6
f 122/3/6 123/3/6 130/3/6
f 129/4/6 122/4/6 130/4/6
f 123/4/6 124/4/6 131/4/6
f 130/3/6 123/3/6 131/3/6
f 124/2/6 115/2/6 132/2/6
f 131/4/6 124/4/6 132/4/6
f 106/2/6 125/2/6 133/2/6
f 125/1/6 126/1/6 133/1/6
f 126/3/6 127/3/6 134/3/6
f 133/1/6 126/1/6 134/1/6
f 127/1/6 128/1/6 135/1/6
f 134/3/6 127/3/6 135/3/6
f 128/2/6 129/2/6 136/2/6
f 135/1/6 128/1/6 136/1/6
f 129/1/6 130/1/6 137/1/6
f 136/2/6 129/2/6 137/2/6
f 130/3/6 131/3/6 138/3/6
f 137/1/6 130/1/6 138/1/6
f 131/1/6 132/1/6 139/1/6
f 138/3/6 131/3/6 139/3/6
f 132/2/6 115/2/6 140/2/6
f 139/1/6 132/1/6 140/1/6
f 105/5/6 106/5/6 141/5/6
f 106/2/6 133/2/6 142/2/6
f 141/5/6 106/5/6 142/5/6
f 133/4/6 134/4/6 143/4/6
f 142/2/6 133/2/6 143/2/6
f 134/3/6 135/3/6 144/3/6
f 143/4/6 134/4/6 144/4/6
f 135/4/6 136/4/6 145/4/6
f 144/3/6 135/3/6 145/3/6
f 136/2/6 137/2/6 146/2/6
f 145/4/6 136/4/6 146/4/6
f 137/4/6 138/4/6 147/4/6
f 146/2/6 137/2/6 147/2/6
f 138/3/6 139/3/6 148/3/6
f 147/4/6 138/4/6 148/4/6
f 139/4/6 140/4/6 149/4/6
f 148/3/6 139/3/6 149/3/6
f 140/2/6 115/2/6 150/2/6
f 149/4/6 140/4/6 150/4/6
f 115/5/6 116/5/6 151/5/6
f 150/2/6 115/2/6 151/2/6
f 151/5/6 116/5/6 152/5/6
