# MagicaVoxel @ Ephtracy

# material
mtllib yellowbiplane.mtl
usemtl palette

# normals
vn -1 0 0
vn 1 0 0
vn 0 0 1
vn 0 0 -1
vn 0 -1 0
vn 0 1 0

# texcoords
vt 0.0214844 0.5
vt 0.373047 0.5
vt 0.876953 0.5
vt 0.958984 0.5

# verts
v -12 9 2
v -12 9 -3
v -12 14 2
v -12 14 -3
v -11 8 2
v -11 8 -3
v -11 9 2
v -11 9 -3
v -10 7 2
v -10 7 -3
v -10 8 2
v -10 8 -3
v -10 9 6
v -10 9 2
v -10 9 -3
v -10 9 -7
v -10 10 6
v -10 10 2
v -10 10 -3
v -10 10 -7
v -9 6 2
v -9 6 -3
v -9 7 2
v -9 7 -3
v -1 10 2
v -1 10 -3
v -1 11 2
v -1 11 -3
v 0 11 1
v 0 11 -2
v 0 13 1
v 0 13 -2
v 4 2 2
v 4 2 1
v 4 2 -2
v 4 2 -3
v 4 4 2
v 4 4 1
v 4 4 -2
v 4 4 -3
v 5 1 2
v 5 1 1
v 5 1 -2
v 5 1 -3
v 5 2 2
v 5 2 1
v 5 2 -2
v 5 2 -3
v 5 4 2
v 5 4 1
v 5 4 -2
v 5 4 -3
v 5 5 2
v 5 5 1
v 5 5 -2
v 5 5 -3
v 5 7 11
v 5 7 2
v 5 7 -3
v 5 7 -12
v 5 8 11
v 5 8 3
v 5 8 -4
v 5 8 -12
v 5 9 3
v 5 9 2
v 5 9 -3
v 5 9 -4
v 5 11 3
v 5 11 2
v 5 11 -3
v 5 11 -4
v 5 12 11
v 5 12 3
v 5 12 2
v 5 12 -3
v 5 12 -4
v 5 12 -12
v 5 13 11
v 5 13 -12
v 6 0 2
v 6 0 1
v 6 0 -2
v 6 0 -3
v 6 1 2
v 6 1 1
v 6 1 -2
v 6 1 -3
v 6 5 2
v 6 5 1
v 6 5 -2
v 6 5 -3
v 6 6 2
v 6 6 1
v 6 6 -2
v 6 6 -3
v 6 7 12
v 6 7 11
v 6 7 -12
v 6 7 -13
v 6 8 12
v 6 8 11
v 6 8 -12
v 6 8 -13
v 6 9 3
v 6 9 2
v 6 9 -3
v 6 9 -4
v 6 10 2
v 6 10 -3
v 6 11 3
v 6 11 2
v 6 11 -3
v 6 11 -4
v 6 12 12
v 6 12 11
v 6 12 -12
v 6 12 -13
v 6 13 12
v 6 13 11
v 6 13 -12
v 6 13 -13
v 8 8 3
v 8 8 2
v 8 8 -3
v 8 8 -4
v 8 9 3
v 8 9 2
v 8 9 -3
v 8 9 -4
v 8 11 3
v 8 11 2
v 8 11 -3
v 8 11 -4
v 8 12 3
v 8 12 2
v 8 12 -3
v 8 12 -4
v -11 12 2
v -11 12 -3
v -11 14 2
v -11 14 -3
v -10 11 2
v -10 11 -3
v -10 12 2
v -10 12 -3
v -9 9 6
v -9 9 5
v -9 9 -6
v -9 9 -7
v -9 10 6
v -9 10 5
v -9 10 2
v -9 10 -3
v -9 10 -6
v -9 10 -7
v -9 11 2
v -9 11 -3
v -8 9 5
v -8 9 2
v -8 9 -3
v -8 9 -6
v -8 10 5
v -8 10 2
v -8 10 -3
v -8 10 -6
v 2 11 1
v 2 11 -2
v 2 12 1
v 2 12 -2
v 2 13 1
v 2 13 -2
v 3 10 2
v 3 10 -3
v 3 11 2
v 3 11 -3
v 6 8 3
v 6 8 2
v 6 8 -3
v 6 8 -4
v 6 9 3
v 6 9 2
v 6 9 -3
v 6 9 -4
v 6 11 3
v 6 11 2
v 6 11 -3
v 6 11 -4
v 6 12 3
v 6 12 2
v 6 12 -3
v 6 12 -4
v 8 0 2
v 8 0 1
v 8 0 -2
v 8 0 -3
v 8 1 2
v 8 1 1
v 8 1 -2
v 8 1 -3
v 8 5 2
v 8 5 1
v 8 5 -2
v 8 5 -3
v 8 6 2
v 8 6 1
v 8 6 -2
v 8 6 -3
v 8 7 12
v 8 7 11
v 8 7 -12
v 8 7 -13
v 8 8 12
v 8 8 11
v 8 8 -12
v 8 8 -13
v 8 9 3
v 8 9 2
v 8 9 -3
v 8 9 -4
v 8 10 2
v 8 10 -3
v 8 11 3
v 8 11 2
v 8 11 -3
v 8 11 -4
v 8 12 12
v 8 12 11
v 8 12 -12
v 8 12 -13
v 8 13 12
v 8 13 11
v 8 13 -12
v 8 13 -13
v 9 1 2
v 9 1 1
v 9 1 -2
v 9 1 -3
v 9 2 2
v 9 2 1
v 9 2 -2
v 9 2 -3
v 9 4 2
v 9 4 1
v 9 4 -2
v 9 4 -3
v 9 5 2
v 9 5 1
v 9 5 -2
v 9 5 -3
v 9 7 11
v 9 7 2
v 9 7 -3
v 9 7 -12
v 9 8 11
v 9 8 3
v 9 8 -4
v 9 8 -12
v 9 9 3
v 9 9 2
v 9 9 -3
v 9 9 -4
v 9 11 3
v 9 11 2
v 9 11 -3
v 9 11 -4
v 9 12 11
v 9 12 3
v 9 12 2
v 9 12 -3
v 9 12 -4
v 9 12 -12
v 9 13 11
v 9 13 -12
v 10 2 2
v 10 2 1
v 10 2 -2
v 10 2 -3
v 10 4 2
v 10 4 1
v 10 4 -2
v 10 4 -3
v 11 6 2
v 11 6 -3
v 11 10 2
v 11 10 -3
v 6 7 12
v 6 8 12
v 6 12 12
v 6 13 12
v 8 7 12
v 8 8 12
v 8 12 12
v 8 13 12
v 5 7 11
v 5 8 11
v 5 12 11
v 5 13 11
v 6 7 11
v 6 8 11
v 6 12 11
v 6 13 11
v 8 7 11
v 8 8 11
v 8 12 11
v 8 13 11
v 9 7 11
v 9 8 11
v 9 12 11
v 9 13 11
v -10 9 6
v -10 10 6
v -9 9 6
v -9 10 6
v -9 9 5
v -9 10 5
v -8 9 5
v -8 10 5
v 5 8 3
v 5 9 3
v 5 11 3
v 5 12 3
v 6 8 3
v 6 9 3
v 6 11 3
v 6 12 3
v 8 8 3
v 8 9 3
v 8 11 3
v 8 12 3
v 9 8 3
v 9 9 3
v 9 11 3
v 9 12 3
v -12 9 2
v -12 14 2
v -11 8 2
v -11 9 2
v -11 12 2
v -11 14 2
v -10 7 2
v -10 8 2
v -10 9 2
v -10 10 2
v -10 11 2
v -10 12 2
v -9 6 2
v -9 7 2
v -9 10 2
v -9 11 2
v -8 9 2
v -8 10 2
v -1 10 2
v -1 11 2
v 3 10 2
v 3 11 2
v 4 2 2
v 4 4 2
v 5 1 2
v 5 2 2
v 5 4 2
v 5 5 2
v 5 7 2
v 5 9 2
v 6 0 2
v 6 1 2
v 6 2 2
v 6 4 2
v 6 5 2
v 6 6 2
v 6 8 2
v 6 9 2
v 6 10 2
v 8 0 2
v 8 1 2
v 8 2 2
v 8 4 2
v 8 5 2
v 8 6 2
v 8 8 2
v 8 9 2
v 8 10 2
v 9 1 2
v 9 2 2
v 9 4 2
v 9 5 2
v 9 7 2
v 9 9 2
v 10 2 2
v 10 4 2
v 11 6 2
v 11 10 2
v 0 11 1
v 0 13 1
v 1 11 1
v 1 12 1
v 2 11 1
v 2 12 1
v 2 13 1
v 4 2 -2
v 4 4 -2
v 5 1 -2
v 5 2 -2
v 5 4 -2
v 5 5 -2
v 6 0 -2
v 6 1 -2
v 6 2 -2
v 6 4 -2
v 6 5 -2
v 6 6 -2
v 8 0 -2
v 8 1 -2
v 8 2 -2
v 8 4 -2
v 8 5 -2
v 8 6 -2
v 9 1 -2
v 9 2 -2
v 9 4 -2
v 9 5 -2
v 10 2 -2
v 10 4 -2
v 5 11 -3
v 5 12 -3
v 6 10 -3
v 6 11 -3
v 6 12 -3
v 8 10 -3
v 8 11 -3
v 8 12 -3
v 9 11 -3
v 9 12 -3
v 5 11 2
v 5 12 2
v 6 10 2
v 6 11 2
v 6 12 2
v 8 10 2
v 8 11 2
v 8 12 2
v 9 11 2
v 9 12 2
v 4 2 1
v 4 4 1
v 5 1 1
v 5 2 1
v 5 4 1
v 5 5 1
v 6 0 1
v 6 1 1
v 6 2 1
v 6 4 1
v 6 5 1
v 6 6 1
v 8 0 1
v 8 1 1
v 8 2 1
v 8 4 1
v 8 5 1
v 8 6 1
v 9 1 1
v 9 2 1
v 9 4 1
v 9 5 1
v 10 2 1
v 10 4 1
v 0 11 -2
v 0 13 -2
v 1 11 -2
v 1 12 -2
v 2 11 -2
v 2 12 -2
v 2 13 -2
v -12 9 -3
v -12 14 -3
v -11 8 -3
v -11 9 -3
v -11 12 -3
v -11 14 -3
v -10 7 -3
v -10 8 -3
v -10 9 -3
v -10 10 -3
v -10 11 -3
v -10 12 -3
v -9 6 -3
v -9 7 -3
v -9 10 -3
v -9 11 -3
v -8 9 -3
v -8 10 -3
v -1 10 -3
v -1 11 -3
v 3 10 -3
v 3 11 -3
v 4 2 -3
v 4 4 -3
v 5 1 -3
v 5 2 -3
v 5 4 -3
v 5 5 -3
v 5 7 -3
v 5 9 -3
v 6 0 -3
v 6 1 -3
v 6 2 -3
v 6 4 -3
v 6 5 -3
v 6 6 -3
v 6 8 -3
v 6 9 -3
v 6 10 -3
v 8 0 -3
v 8 1 -3
v 8 2 -3
v 8 4 -3
v 8 5 -3
v 8 6 -3
v 8 8 -3
v 8 9 -3
v 8 10 -3
v 9 1 -3
v 9 2 -3
v 9 4 -3
v 9 5 -3
v 9 7 -3
v 9 9 -3
v 10 2 -3
v 10 4 -3
v 11 6 -3
v 11 10 -3
v 5 8 -4
v 5 9 -4
v 5 11 -4
v 5 12 -4
v 6 8 -4
v 6 9 -4
v 6 11 -4
v 6 12 -4
v 8 8 -4
v 8 9 -4
v 8 11 -4
v 8 12 -4
v 9 8 -4
v 9 9 -4
v 9 11 -4
v 9 12 -4
v -9 9 -6
v -9 10 -6
v -8 9 -6
v -8 10 -6
v -10 9 -7
v -10 10 -7
v -9 9 -7
v -9 10 -7
v 5 7 -12
v 5 8 -12
v 5 12 -12
v 5 13 -12
v 6 7 -12
v 6 8 -12
v 6 12 -12
v 6 13 -12
v 8 7 -12
v 8 8 -12
v 8 12 -12
v 8 13 -12
v 9 7 -12
v 9 8 -12
v 9 12 -12
v 9 13 -12
v 6 7 -13
v 6 8 -13
v 6 12 -13
v 6 13 -13
v 8 7 -13
v 8 8 -13
v 8 12 -13
v 8 13 -13
v 6 0 2
v 8 0 2
v 6 0 1
v 8 0 1
v 6 0 -2
v 8 0 -2
v 6 0 -3
v 8 0 -3
v 5 1 2
v 6 1 2
v 8 1 2
v 9 1 2
v 5 1 1
v 6 1 1
v 8 1 1
v 9 1 1
v 5 1 -2
v 6 1 -2
v 8 1 -2
v 9 1 -2
v 5 1 -3
v 6 1 -3
v 8 1 -3
v 9 1 -3
v 4 2 2
v 5 2 2
v 9 2 2
v 10 2 2
v 4 2 1
v 5 2 1
v 9 2 1
v 10 2 1
v 4 2 -2
v 5 2 -2
v 9 2 -2
v 10 2 -2
v 4 2 -3
v 5 2 -3
v 9 2 -3
v 10 2 -3
v -9 6 2
v 6 6 2
v 8 6 2
v 11 6 2
v 6 6 1
v 8 6 1
v 6 6 -2
v 8 6 -2
v -9 6 -3
v 6 6 -3
v 8 6 -3
v 11 6 -3
v 6 7 12
v 8 7 12
v 5 7 11
v 6 7 11
v 8 7 11
v 9 7 11
v -10 7 2
v -9 7 2
v 5 7 2
v 9 7 2
v -10 7 -3
v -9 7 -3
v 5 7 -3
v 9 7 -3
v 5 7 -12
v 6 7 -12
v 8 7 -12
v 9 7 -12
v 6 7 -13
v 8 7 -13
v -11 8 2
v -10 8 2
v -11 8 -3
v -10 8 -3
v -10 9 6
v -9 9 6
v -9 9 5
v -8 9 5
v 6 9 3
v 8 9 3
v -12 9 2
v -11 9 2
v -10 9 2
v -8 9 2
v 6 9 2
v 8 9 2
v -12 9 -3
v -11 9 -3
v -10 9 -3
v -8 9 -3
v 6 9 -3
v 8 9 -3
v 6 9 -4
v 8 9 -4
v -9 9 -6
v -8 9 -6
v -10 9 -7
v -9 9 -7
v 5 11 3
v 6 11 3
v 8 11 3
v 9 11 3
v 5 11 2
v 6 11 2
v 8 11 2
v 9 11 2
v 5 11 -3
v 6 11 -3
v 8 11 -3
v 9 11 -3
v 5 11 -4
v 6 11 -4
v 8 11 -4
v 9 11 -4
v 6 12 12
v 8 12 12
v 5 12 11
v 6 12 11
v 8 12 11
v 9 12 11
v 5 12 3
v 6 12 3
v 8 12 3
v 9 12 3
v 5 12 2
v 6 12 2
v 8 12 2
v 9 12 2
v 5 12 -3
v 6 12 -3
v 8 12 -3
v 9 12 -3
v 5 12 -4
v 6 12 -4
v 8 12 -4
v 9 12 -4
v 5 12 -12
v 6 12 -12
v 8 12 -12
v 9 12 -12
v 6 12 -13
v 8 12 -13
v 4 4 2
v 5 4 2
v 9 4 2
v 10 4 2
v 4 4 1
v 5 4 1
v 9 4 1
v 10 4 1
v 4 4 -2
v 5 4 -2
v 9 4 -2
v 10 4 -2
v 4 4 -3
v 5 4 -3
v 9 4 -3
v 10 4 -3
v 5 5 2
v 6 5 2
v 8 5 2
v 9 5 2
v 5 5 1
v 6 5 1
v 8 5 1
v 9 5 1
v 5 5 -2
v 6 5 -2
v 8 5 -2
v 9 5 -2
v 5 5 -3
v 6 5 -3
v 8 5 -3
v 9 5 -3
v 6 8 12
v 8 8 12
v 5 8 11
v 6 8 11
v 8 8 11
v 9 8 11
v 5 8 3
v 6 8 3
v 8 8 3
v 9 8 3
v 6 8 2
v 8 8 2
v 6 8 -3
v 8 8 -3
v 5 8 -4
v 6 8 -4
v 8 8 -4
v 9 8 -4
v 5 8 -12
v 6 8 -12
v 8 8 -12
v 9 8 -12
v 6 8 -13
v 8 8 -13
v 5 9 3
v 6 9 3
v 8 9 3
v 9 9 3
v 5 9 2
v 6 9 2
v 8 9 2
v 9 9 2
v 5 9 -3
v 6 9 -3
v 8 9 -3
v 9 9 -3
v 5 9 -4
v 6 9 -4
v 8 9 -4
v 9 9 -4
v -10 10 6
v -9 10 6
v -9 10 5
v -8 10 5
v -10 10 2
v -9 10 2
v -8 10 2
v -1 10 2
v 3 10 2
v 6 10 2
v 8 10 2
v 11 10 2
v -10 10 -3
v -9 10 -3
v -8 10 -3
v -1 10 -3
v 3 10 -3
v 6 10 -3
v 8 10 -3
v 11 10 -3
v -9 10 -6
v -8 10 -6
v -10 10 -7
v -9 10 -7
v 6 11 3
v 8 11 3
v -10 11 2
v -9 11 2
v -1 11 2
v 3 11 2
v 6 11 2
v 8 11 2
v 0 11 1
v 1 11 1
v 2 11 1
v 0 11 -2
v 1 11 -2
v 2 11 -2
v -10 11 -3
v -9 11 -3
v -1 11 -3
v 3 11 -3
v 6 11 -3
v 8 11 -3
v 6 11 -4
v 8 11 -4
v -11 12 2
v -10 12 2
v -11 12 -3
v -10 12 -3
v 6 13 12
v 8 13 12
v 5 13 11
v 6 13 11
v 8 13 11
v 9 13 11
v 0 13 1
v 2 13 1
v 0 13 -2
v 2 13 -2
v 5 13 -12
v 6 13 -12
v 8 13 -12
v 9 13 -12
v 6 13 -13
v 8 13 -13
v -12 14 2
v -11 14 2
v -12 14 -3
v -11 14 -3

# faces
f 3/1/1 2/1/1 1/1/1
f 4/1/1 2/1/1 3/1/1
f 7/1/1 6/1/1 5/1/1
f 8/1/1 6/1/1 7/1/1
f 11/1/1 10/1/1 9/1/1
f 12/1/1 10/1/1 11/1/1
f 17/1/1 14/1/1 13/1/1
f 18/1/1 14/1/1 17/1/1
f 19/1/1 16/1/1 15/1/1
f 20/1/1 16/1/1 19/1/1
f 23/1/1 22/1/1 21/1/1
f 24/1/1 22/1/1 23/1/1
f 27/3/1 26/3/1 25/3/1
f 28/3/1 26/3/1 27/3/1
f 31/2/1 30/2/1 29/2/1
f 32/2/1 30/2/1 31/2/1
f 37/3/1 34/3/1 33/3/1
f 38/3/1 34/3/1 37/3/1
f 39/3/1 36/3/1 35/3/1
f 40/3/1 36/3/1 39/3/1
f 45/3/1 42/3/1 41/3/1
f 46/3/1 42/3/1 45/3/1
f 47/3/1 44/3/1 43/3/1
f 48/3/1 44/3/1 47/3/1
f 53/3/1 50/3/1 49/3/1
f 54/3/1 50/3/1 53/3/1
f 55/3/1 52/3/1 51/3/1
f 56/3/1 52/3/1 55/3/1
f 61/3/1 58/3/1 57/3/1
f 62/3/1 58/3/1 61/3/1
f 63/3/1 60/3/1 59/3/1
f 64/3/1 60/3/1 63/3/1
f 65/3/1 58/3/1 62/3/1
f 66/3/1 58/3/1 65/3/1
f 67/3/1 63/3/1 59/3/1
f 68/3/1 63/3/1 67/3/1
f 74/3/1 70/3/1 69/3/1
f 75/3/1 70/3/1 74/3/1
f 76/3/1 72/3/1 71/3/1
f 77/3/1 72/3/1 76/3/1
f 79/3/1 77/3/1 76/3/1
f 79/3/1 78/3/1 77/3/1
f 79/3/1 76/3/1 75/3/1
f 79/3/1 75/3/1 74/3/1
f 79/3/1 74/3/1 73/3/1
f 80/3/1 78/3/1 79/3/1
f 85/3/1 82/3/1 81/3/1
f 86/3/1 82/3/1 85/3/1
f 87/3/1 84/3/1 83/3/1
f 88/3/1 84/3/1 87/3/1
f 93/3/1 90/3/1 89/3/1
f 94/3/1 90/3/1 93/3/1
f 95/3/1 92/3/1 91/3/1
f 96/3/1 92/3/1 95/3/1
f 101/3/1 98/3/1 97/3/1
f 102/3/1 98/3/1 101/3/1
f 103/3/1 100/3/1 99/3/1
f 104/3/1 100/3/1 103/3/1
f 109/3/1 106/3/1 105/3/1
f 110/3/1 108/3/1 107/3/1
f 111/3/1 109/3/1 105/3/1
f 112/3/1 109/3/1 111/3/1
f 113/3/1 108/3/1 110/3/1
f 114/3/1 108/3/1 113/3/1
f 119/3/1 116/3/1 115/3/1
f 120/3/1 116/3/1 119/3/1
f 121/3/1 118/3/1 117/3/1
f 122/3/1 118/3/1 121/3/1
f 127/3/1 124/3/1 123/3/1
f 128/3/1 124/3/1 127/3/1
f 129/3/1 126/3/1 125/3/1
f 130/3/1 126/3/1 129/3/1
f 135/3/1 132/3/1 131/3/1
f 136/3/1 132/3/1 135/3/1
f 137/3/1 134/3/1 133/3/1
f 138/3/1 134/3/1 137/3/1
f 139/1/2 140/1/2 141/1/2
f 141/1/2 140/1/2 142/1/2
f 143/1/2 144/1/2 145/1/2
f 145/1/2 144/1/2 146/1/2
f 147/1/2 148/1/2 151/1/2
f 151/1/2 148/1/2 152/1/2
f 149/1/2 150/1/2 155/1/2
f 155/1/2 150/1/2 156/1/2
f 153/1/2 154/1/2 157/1/2
f 157/1/2 154/1/2 158/1/2
f 159/1/2 160/1/2 163/1/2
f 163/1/2 160/1/2 164/1/2
f 161/1/2 162/1/2 165/1/2
f 165/1/2 162/1/2 166/1/2
f 167/4/2 168/4/2 169/4/2
f 169/4/2 168/4/2 170/4/2
f 169/2/2 170/2/2 171/2/2
f 171/2/2 170/2/2 172/2/2
f 173/3/2 174/3/2 175/3/2
f 175/3/2 174/3/2 176/3/2
f 177/3/2 178/3/2 181/3/2
f 181/3/2 178/3/2 182/3/2
f 179/3/2 180/3/2 183/3/2
f 183/3/2 180/3/2 184/3/2
f 185/3/2 186/3/2 189/3/2
f 189/3/2 186/3/2 190/3/2
f 187/3/2 188/3/2 191/3/2
f 191/3/2 188/3/2 192/3/2
f 193/3/2 194/3/2 197/3/2
f 197/3/2 194/3/2 198/3/2
f 195/3/2 196/3/2 199/3/2
f 199/3/2 196/3/2 200/3/2
f 201/3/2 202/3/2 205/3/2
f 205/3/2 202/3/2 206/3/2
f 203/3/2 204/3/2 207/3/2
f 207/3/2 204/3/2 208/3/2
f 209/3/2 210/3/2 213/3/2
f 213/3/2 210/3/2 214/3/2
f 211/3/2 212/3/2 215/3/2
f 215/3/2 212/3/2 216/3/2
f 217/3/2 218/3/2 221/3/2
f 219/3/2 220/3/2 222/3/2
f 217/3/2 221/3/2 223/3/2
f 223/3/2 221/3/2 224/3/2
f 222/3/2 220/3/2 225/3/2
f 225/3/2 220/3/2 226/3/2
f 227/3/2 228/3/2 231/3/2
f 231/3/2 228/3/2 232/3/2
f 229/3/2 230/3/2 233/3/2
f 233/3/2 230/3/2 234/3/2
f 235/3/2 236/3/2 239/3/2
f 239/3/2 236/3/2 240/3/2
f 237/3/2 238/3/2 241/3/2
f 241/3/2 238/3/2 242/3/2
f 243/3/2 244/3/2 247/3/2
f 247/3/2 244/3/2 248/3/2
f 245/3/2 246/3/2 249/3/2
f 249/3/2 246/3/2 250/3/2
f 251/3/2 252/3/2 255/3/2
f 255/3/2 252/3/2 256/3/2
f 253/3/2 254/3/2 257/3/2
f 257/3/2 254/3/2 258/3/2
f 256/3/2 252/3/2 259/3/2
f 259/3/2 252/3/2 260/3/2
f 253/3/2 257/3/2 261/3/2
f 261/3/2 257/3/2 262/3/2
f 263/3/2 264/3/2 268/3/2
f 268/3/2 264/3/2 269/3/2
f 265/3/2 266/3/2 270/3/2
f 270/3/2 266/3/2 271/3/2
f 270/3/2 271/3/2 273/3/2
f 271/3/2 272/3/2 273/3/2
f 269/3/2 270/3/2 273/3/2
f 268/3/2 269/3/2 273/3/2
f 267/3/2 268/3/2 273/3/2
f 273/3/2 272/3/2 274/3/2
f 275/3/2 276/3/2 279/3/2
f 279/3/2 276/3/2 280/3/2
f 277/3/2 278/3/2 281/3/2
f 281/3/2 278/3/2 282/3/2
f 283/1/2 284/1/2 285/1/2
f 285/1/2 284/1/2 286/1/2
f 291/3/3 288/3/3 287/3/3
f 292/3/3 288/3/3 291/3/3
f 293/3/3 290/3/3 289/3/3
f 294/3/3 290/3/3 293/3/3
f 299/3/3 296/3/3 295/3/3
f 300/3/3 296/3/3 299/3/3
f 301/3/3 298/3/3 297/3/3
f 302/3/3 298/3/3 301/3/3
f 307/3/3 304/3/3 303/3/3
f 308/3/3 304/3/3 307/3/3
f 309/3/3 306/3/3 305/3/3
f 310/3/3 306/3/3 309/3/3
f 313/1/3 312/1/3 311/1/3
f 314/1/3 312/1/3 313/1/3
f 317/1/3 316/1/3 315/1/3
f 318/1/3 316/1/3 317/1/3
f 323/3/3 320/3/3 319/3/3
f 324/3/3 320/3/3 323/3/3
f 325/3/3 322/3/3 321/3/3
f 326/3/3 322/3/3 325/3/3
f 328/3/3 325/3/3 324/3/3
f 329/3/3 325/3/3 328/3/3
f 331/3/3 328/3/3 327/3/3
f 332/3/3 328/3/3 331/3/3
f 333/3/3 330/3/3 329/3/3
f 334/3/3 330/3/3 333/3/3
f 338/1/3 336/1/3 335/1/3
f 339/1/3 336/1/3 338/1/3
f 340/1/3 336/1/3 339/1/3
f 342/1/3 338/1/3 337/1/3
f 342/1/3 339/1/3 338/1/3
f 343/1/3 339/1/3 342/1/3
f 344/1/3 339/1/3 343/1/3
f 345/1/3 339/1/3 344/1/3
f 346/1/3 339/1/3 345/1/3
f 348/1/3 342/1/3 341/1/3
f 348/1/3 343/1/3 342/1/3
f 349/1/3 345/1/3 344/1/3
f 350/1/3 345/1/3 349/1/3
f 351/1/3 348/1/3 347/1/3
f 351/1/3 343/1/3 348/1/3
f 353/1/3 352/1/3 351/1/3
f 355/1/3 353/1/3 351/1/3
f 355/3/3 354/3/3 353/3/3
f 356/3/3 354/3/3 355/3/3
f 360/3/3 358/3/3 357/3/3
f 361/3/3 358/3/3 360/3/3
f 363/1/3 351/1/3 347/1/3
f 363/1/3 355/1/3 351/1/3
f 364/1/3 355/1/3 363/1/3
f 366/3/3 362/3/3 361/3/3
f 366/3/3 361/3/3 360/3/3
f 366/3/3 360/3/3 359/3/3
f 367/3/3 362/3/3 366/3/3
f 368/3/3 362/3/3 367/3/3
f 369/3/3 362/3/3 368/3/3
f 370/1/3 363/1/3 347/1/3
f 372/1/3 355/1/3 364/1/3
f 373/1/3 355/1/3 372/1/3
f 374/3/3 366/3/3 365/3/3
f 374/3/3 367/3/3 366/3/3
f 375/3/3 367/3/3 374/3/3
f 376/1/3 368/1/3 367/1/3
f 376/3/3 367/3/3 375/3/3
f 377/3/3 370/3/3 369/3/3
f 377/1/3 368/1/3 376/1/3
f 377/3/3 369/3/3 368/3/3
f 378/3/3 370/3/3 377/3/3
f 379/1/3 363/1/3 370/1/3
f 379/3/3 370/3/3 378/3/3
f 380/1/3 372/1/3 371/1/3
f 381/1/3 372/1/3 380/1/3
f 383/3/3 376/3/3 375/3/3
f 383/3/3 378/3/3 377/3/3
f 383/3/3 377/3/3 376/3/3
f 384/3/3 378/3/3 383/3/3
f 385/3/3 378/3/3 384/3/3
f 386/3/3 378/3/3 385/3/3
f 387/1/3 363/1/3 379/1/3
f 388/1/3 382/1/3 381/1/3
f 389/3/3 385/3/3 384/3/3
f 390/3/3 385/3/3 389/3/3
f 391/1/3 387/1/3 379/1/3
f 391/1/3 388/1/3 387/1/3
f 392/1/3 382/1/3 388/1/3
f 392/1/3 388/1/3 391/1/3
f 395/2/3 394/2/3 393/2/3
f 396/2/3 394/2/3 395/2/3
f 397/4/3 396/4/3 395/4/3
f 398/2/3 394/2/3 396/2/3
f 398/4/3 396/4/3 397/4/3
f 399/2/3 394/2/3 398/2/3
f 403/3/3 401/3/3 400/3/3
f 404/3/3 401/3/3 403/3/3
f 407/3/3 403/3/3 402/3/3
f 407/3/3 405/3/3 404/3/3
f 407/3/3 404/3/3 403/3/3
f 408/3/3 405/3/3 407/3/3
f 409/3/3 405/3/3 408/3/3
f 410/3/3 405/3/3 409/3/3
f 412/3/3 407/3/3 406/3/3
f 412/3/3 408/3/3 407/3/3
f 413/3/3 408/3/3 412/3/3
f 414/1/3 409/1/3 408/1/3
f 414/3/3 408/3/3 413/3/3
f 415/3/3 411/3/3 410/3/3
f 415/1/3 409/1/3 414/1/3
f 415/3/3 410/3/3 409/3/3
f 416/3/3 411/3/3 415/3/3
f 417/3/3 411/3/3 416/3/3
f 418/3/3 414/3/3 413/3/3
f 418/3/3 416/3/3 415/3/3
f 418/3/3 415/3/3 414/3/3
f 419/3/3 416/3/3 418/3/3
f 420/3/3 416/3/3 419/3/3
f 421/3/3 416/3/3 420/3/3
f 422/3/3 420/3/3 419/3/3
f 423/3/3 420/3/3 422/3/3
f 427/3/3 425/3/3 424/3/3
f 428/3/3 425/3/3 427/3/3
f 429/3/3 427/3/3 426/3/3
f 430/3/3 427/3/3 429/3/3
f 432/3/3 431/3/3 430/3/3
f 433/3/3 431/3/3 432/3/3
f 434/3/4 435/3/4 437/3/4
f 437/3/4 435/3/4 438/3/4
f 436/3/4 437/3/4 439/3/4
f 439/3/4 437/3/4 440/3/4
f 440/3/4 441/3/4 442/3/4
f 442/3/4 441/3/4 443/3/4
f 444/3/4 445/3/4 447/3/4
f 447/3/4 445/3/4 448/3/4
f 446/3/4 447/3/4 451/3/4
f 448/3/4 449/3/4 451/3/4
f 447/3/4 448/3/4 451/3/4
f 451/3/4 449/3/4 452/3/4
f 452/3/4 449/3/4 453/3/4
f 453/3/4 449/3/4 454/3/4
f 450/3/4 451/3/4 456/3/4
f 451/3/4 452/3/4 456/3/4
f 456/3/4 452/3/4 457/3/4
f 452/1/4 453/1/4 458/1/4
f 457/3/4 452/3/4 458/3/4
f 454/3/4 455/3/4 459/3/4
f 458/1/4 453/1/4 459/1/4
f 453/3/4 454/3/4 459/3/4
f 459/3/4 455/3/4 460/3/4
f 460/3/4 455/3/4 461/3/4
f 457/3/4 458/3/4 462/3/4
f 459/3/4 460/3/4 462/3/4
f 458/3/4 459/3/4 462/3/4
f 462/3/4 460/3/4 463/3/4
f 463/3/4 460/3/4 464/3/4
f 464/3/4 460/3/4 465/3/4
f 463/3/4 464/3/4 466/3/4
f 466/3/4 464/3/4 467/3/4
f 468/2/4 469/2/4 470/2/4
f 470/2/4 469/2/4 471/2/4
f 470/4/4 471/4/4 472/4/4
f 471/2/4 469/2/4 473/2/4
f 472/4/4 471/4/4 473/4/4
f 473/2/4 469/2/4 474/2/4
f 475/1/4 476/1/4 478/1/4
f 478/1/4 476/1/4 479/1/4
f 479/1/4 476/1/4 480/1/4
f 477/1/4 478/1/4 482/1/4
f 478/1/4 479/1/4 482/1/4
f 482/1/4 479/1/4 483/1/4
f 483/1/4 479/1/4 484/1/4
f 484/1/4 479/1/4 485/1/4
f 485/1/4 479/1/4 486/1/4
f 481/1/4 482/1/4 488/1/4
f 482/1/4 483/1/4 488/1/4
f 484/1/4 485/1/4 489/1/4
f 489/1/4 485/1/4 490/1/4
f 487/1/4 488/1/4 491/1/4
f 488/1/4 483/1/4 491/1/4
f 491/1/4 492/1/4 493/1/4
f 491/1/4 493/1/4 495/1/4
f 493/3/4 494/3/4 495/3/4
f 495/3/4 494/3/4 496/3/4
f 497/3/4 498/3/4 500/3/4
f 500/3/4 498/3/4 501/3/4
f 487/1/4 491/1/4 503/1/4
f 491/1/4 495/1/4 503/1/4
f 503/1/4 495/1/4 504/1/4
f 501/3/4 502/3/4 506/3/4
f 500/3/4 501/3/4 506/3/4
f 499/3/4 500/3/4 506/3/4
f 506/3/4 502/3/4 507/3/4
f 507/3/4 502/3/4 508/3/4
f 508/3/4 502/3/4 509/3/4
f 487/1/4 503/1/4 510/1/4
f 504/1/4 495/1/4 512/1/4
f 512/1/4 495/1/4 513/1/4
f 505/3/4 506/3/4 514/3/4
f 506/3/4 507/3/4 514/3/4
f 514/3/4 507/3/4 515/3/4
f 507/1/4 508/1/4 516/1/4
f 515/3/4 507/3/4 516/3/4
f 509/3/4 510/3/4 517/3/4
f 516/1/4 508/1/4 517/1/4
f 508/3/4 509/3/4 517/3/4
f 517/3/4 510/3/4 518/3/4
f 510/1/4 503/1/4 519/1/4
f 518/3/4 510/3/4 519/3/4
f 511/1/4 512/1/4 520/1/4
f 520/1/4 512/1/4 521/1/4
f 515/3/4 516/3/4 523/3/4
f 517/3/4 518/3/4 523/3/4
f 516/3/4 517/3/4 523/3/4
f 523/3/4 518/3/4 524/3/4
f 524/3/4 518/3/4 525/3/4
f 525/3/4 518/3/4 526/3/4
f 519/1/4 503/1/4 527/1/4
f 521/1/4 522/1/4 528/1/4
f 524/3/4 525/3/4 529/3/4
f 529/3/4 525/3/4 530/3/4
f 519/1/4 527/1/4 531/1/4
f 527/1/4 528/1/4 531/1/4
f 528/1/4 522/1/4 532/1/4
f 531/1/4 528/1/4 532/1/4
f 533/3/4 534/3/4 537/3/4
f 537/3/4 534/3/4 538/3/4
f 535/3/4 536/3/4 539/3/4
f 539/3/4 536/3/4 540/3/4
f 538/3/4 539/3/4 542/3/4
f 542/3/4 539/3/4 543/3/4
f 541/3/4 542/3/4 545/3/4
f 545/3/4 542/3/4 546/3/4
f 543/3/4 544/3/4 547/3/4
f 547/3/4 544/3/4 548/3/4
f 549/1/4 550/1/4 551/1/4
f 551/1/4 550/1/4 552/1/4
f 553/1/4 554/1/4 555/1/4
f 555/1/4 554/1/4 556/1/4
f 557/3/4 558/3/4 561/3/4
f 561/3/4 558/3/4 562/3/4
f 559/3/4 560/3/4 563/3/4
f 563/3/4 560/3/4 564/3/4
f 565/3/4 566/3/4 569/3/4
f 569/3/4 566/3/4 570/3/4
f 567/3/4 568/3/4 571/3/4
f 571/3/4 568/3/4 572/3/4
f 573/3/4 574/3/4 577/3/4
f 577/3/4 574/3/4 578/3/4
f 575/3/4 576/3/4 579/3/4
f 579/3/4 576/3/4 580/3/4
f 583/3/5 582/3/5 581/3/5
f 584/3/5 582/3/5 583/3/5
f 587/3/5 586/3/5 585/3/5
f 588/3/5 586/3/5 587/3/5
f 593/3/5 590/3/5 589/3/5
f 594/3/5 590/3/5 593/3/5
f 595/3/5 592/3/5 591/3/5
f 596/3/5 592/3/5 595/3/5
f 601/3/5 598/3/5 597/3/5
f 602/3/5 598/3/5 601/3/5
f 603/3/5 600/3/5 599/3/5
f 604/3/5 600/3/5 603/3/5
f 609/3/5 606/3/5 605/3/5
f 610/3/5 606/3/5 609/3/5
f 611/3/5 608/3/5 607/3/5
f 612/3/5 608/3/5 611/3/5
f 617/3/5 614/3/5 613/3/5
f 618/3/5 614/3/5 617/3/5
f 619/3/5 616/3/5 615/3/5
f 620/3/5 616/3/5 619/3/5
f 625/1/5 622/1/5 621/1/5
f 626/1/5 624/1/5 623/1/5
f 627/1/5 625/1/5 621/1/5
f 627/1/5 626/1/5 625/1/5
f 628/1/5 624/1/5 626/1/5
f 628/1/5 626/1/5 627/1/5
f 629/1/5 627/1/5 621/1/5
f 630/1/5 627/1/5 629/1/5
f 631/1/5 624/1/5 628/1/5
f 632/1/5 624/1/5 631/1/5
f 636/3/5 634/3/5 633/3/5
f 637/3/5 634/3/5 636/3/5
f 641/3/5 636/3/5 635/3/5
f 641/3/5 637/3/5 636/3/5
f 641/3/5 638/3/5 637/3/5
f 642/3/5 638/3/5 641/3/5
f 643/1/5 640/1/5 639/1/5
f 644/1/5 640/1/5 643/1/5
f 647/3/5 646/3/5 645/3/5
f 648/3/5 646/3/5 647/3/5
f 649/3/5 646/3/5 648/3/5
f 650/3/5 646/3/5 649/3/5
f 651/3/5 649/3/5 648/3/5
f 652/3/5 649/3/5 651/3/5
f 655/1/5 654/1/5 653/1/5
f 656/1/5 654/1/5 655/1/5
f 659/1/5 658/1/5 657/1/5
f 665/1/5 659/1/5 657/1/5
f 665/1/5 660/1/5 659/1/5
f 666/1/5 660/1/5 665/1/5
f 667/3/5 662/3/5 661/3/5
f 668/3/5 662/3/5 667/3/5
f 669/1/5 664/1/5 663/1/5
f 670/1/5 664/1/5 669/1/5
f 675/3/5 674/3/5 673/3/5
f 676/3/5 674/3/5 675/3/5
f 677/1/5 672/1/5 671/1/5
f 678/1/5 672/1/5 677/1/5
f 679/1/5 677/1/5 671/1/5
f 680/1/5 677/1/5 679/1/5
f 685/3/5 682/3/5 681/3/5
f 686/3/5 682/3/5 685/3/5
f 687/3/5 684/3/5 683/3/5
f 688/3/5 684/3/5 687/3/5
f 693/3/5 690/3/5 689/3/5
f 694/3/5 690/3/5 693/3/5
f 695/3/5 692/3/5 691/3/5
f 696/3/5 692/3/5 695/3/5
f 700/3/5 698/3/5 697/3/5
f 701/3/5 698/3/5 700/3/5
f 703/3/5 700/3/5 699/3/5
f 703/3/5 702/3/5 701/3/5
f 703/3/5 701/3/5 700/3/5
f 704/3/5 702/3/5 703/3/5
f 705/3/5 702/3/5 704/3/5
f 706/3/5 702/3/5 705/3/5
f 708/3/5 705/3/5 704/3/5
f 709/3/5 705/3/5 708/3/5
f 711/3/5 708/3/5 707/3/5
f 711/3/5 710/3/5 709/3/5
f 711/3/5 709/3/5 708/3/5
f 712/3/5 710/3/5 711/3/5
f 713/3/5 710/3/5 712/3/5
f 714/3/5 710/3/5 713/3/5
f 716/3/5 713/3/5 712/3/5
f 717/3/5 713/3/5 716/3/5
f 719/3/5 716/3/5 715/3/5
f 719/3/5 718/3/5 717/3/5
f 719/3/5 717/3/5 716/3/5
f 720/3/5 718/3/5 719/3/5
f 721/3/5 718/3/5 720/3/5
f 722/3/5 718/3/5 721/3/5
f 723/3/5 721/3/5 720/3/5
f 724/3/5 721/3/5 723/3/5
f 725/3/6 726/3/6 729/3/6
f 729/3/6 726/3/6 730/3/6
f 727/3/6 728/3/6 731/3/6
f 731/3/6 728/3/6 732/3/6
f 733/3/6 734/3/6 737/3/6
f 737/3/6 734/3/6 738/3/6
f 735/3/6 736/3/6 739/3/6
f 739/3/6 736/3/6 740/3/6
f 741/3/6 742/3/6 745/3/6
f 745/3/6 742/3/6 746/3/6
f 743/3/6 744/3/6 747/3/6
f 747/3/6 744/3/6 748/3/6
f 749/3/6 750/3/6 753/3/6
f 753/3/6 750/3/6 754/3/6
f 751/3/6 752/3/6 755/3/6
f 755/3/6 752/3/6 756/3/6
f 757/3/6 758/3/6 760/3/6
f 760/3/6 758/3/6 761/3/6
f 759/3/6 760/3/6 763/3/6
f 761/3/6 762/3/6 763/3/6
f 760/3/6 761/3/6 763/3/6
f 763/3/6 762/3/6 764/3/6
f 764/3/6 762/3/6 765/3/6
f 765/3/6 762/3/6 766/3/6
f 764/3/6 765/3/6 767/3/6
f 767/3/6 765/3/6 768/3/6
f 769/3/6 770/3/6 772/3/6
f 772/3/6 770/3/6 773/3/6
f 772/3/6 773/3/6 775/3/6
f 773/3/6 774/3/6 775/3/6
f 771/3/6 772/3/6 775/3/6
f 775/3/6 774/3/6 776/3/6
f 776/3/6 774/3/6 777/3/6
f 777/3/6 774/3/6 778/3/6
f 776/3/6 777/3/6 779/3/6
f 779/3/6 777/3/6 780/3/6
f 781/3/6 782/3/6 785/3/6
f 785/3/6 782/3/6 786/3/6
f 783/3/6 784/3/6 787/3/6
f 787/3/6 784/3/6 788/3/6
f 789/3/6 790/3/6 793/3/6
f 793/3/6 790/3/6 794/3/6
f 791/3/6 792/3/6 795/3/6
f 795/3/6 792/3/6 796/3/6
f 797/1/6 798/1/6 799/1/6
f 797/1/6 799/1/6 801/1/6
f 799/1/6 800/1/6 801/1/6
f 801/1/6 800/1/6 802/1/6
f 802/1/6 800/1/6 803/1/6
f 802/1/6 803/1/6 810/1/6
f 803/1/6 804/1/6 810/1/6
f 810/1/6 804/1/6 811/1/6
f 811/1/6 804/1/6 812/1/6
f 807/1/6 808/1/6 813/1/6
f 806/1/6 807/1/6 813/1/6
f 805/1/6 806/1/6 813/1/6
f 813/1/6 808/1/6 814/1/6
f 814/1/6 808/1/6 815/1/6
f 815/1/6 808/1/6 816/1/6
f 810/1/6 811/1/6 817/1/6
f 809/1/6 810/1/6 817/1/6
f 817/1/6 811/1/6 818/1/6
f 809/1/6 817/1/6 819/1/6
f 819/1/6 817/1/6 820/1/6
f 821/3/6 822/3/6 827/3/6
f 827/3/6 822/3/6 828/3/6
f 825/3/6 826/3/6 829/3/6
f 829/3/6 826/3/6 830/3/6
f 830/3/6 826/3/6 831/3/6
f 825/3/6 829/3/6 832/3/6
f 831/3/6 826/3/6 834/3/6
f 823/1/6 824/1/6 835/1/6
f 835/1/6 824/1/6 836/1/6
f 833/3/6 834/3/6 837/3/6
f 832/3/6 833/3/6 837/3/6
f 825/3/6 832/3/6 837/3/6
f 834/3/6 826/3/6 838/3/6
f 837/3/6 834/3/6 838/3/6
f 839/3/6 840/3/6 841/3/6
f 841/3/6 840/3/6 842/3/6
f 843/1/6 844/1/6 845/1/6
f 845/1/6 844/1/6 846/1/6
f 847/3/6 848/3/6 850/3/6
f 850/3/6 848/3/6 851/3/6
f 853/2/6 854/2/6 855/2/6
f 855/2/6 854/2/6 856/2/6
f 849/3/6 850/3/6 857/3/6
f 850/3/6 851/3/6 857/3/6
f 851/3/6 852/3/6 857/3/6
f 857/3/6 852/3/6 858/3/6
f 858/3/6 852/3/6 859/3/6
f 859/3/6 852/3/6 860/3/6
f 858/3/6 859/3/6 861/3/6
f 861/3/6 859/3/6 862/3/6
f 863/1/6 864/1/6 865/1/6
f 865/1/6 864/1/6 866/1/6
